<svg version="1.1" id="Layer_1" xmlns="http://www.w3.org/2000/svg" xmlns:xlink="http://www.w3.org/1999/xlink" x="0px" y="0px"
	 width="100%" viewBox="0 0 457 512" enable-background="new 0 0 457 512" xml:space="preserve">
<path fill="#000000" opacity="1.000000" stroke="none" 
	d="
M1.000000,195.000000 
	C1.000000,130.016617 1.000000,65.533241 1.000000,1.024930 
	C153.277466,1.024930 305.554932,1.024930 457.916199,1.024930 
	C457.916199,171.566772 457.916199,342.133606 457.916199,512.850220 
	C305.666779,512.850220 153.333405,512.850220 1.000000,512.850220 
	C1.000000,407.111603 1.000000,301.305817 1.000000,195.000000 
M126.540001,28.106234 
	C126.221985,28.294210 126.090225,28.570848 125.985214,29.356579 
	C125.985214,29.356579 125.952957,29.805088 125.323303,30.210985 
	C124.173576,33.761505 123.023849,37.312027 121.178551,41.047485 
	C116.602509,44.341984 112.059280,47.683258 107.444199,50.922131 
	C94.158157,60.246284 82.623337,71.559166 72.588005,84.132324 
	C61.335102,98.230995 52.532150,113.954491 45.653568,130.746368 
	C37.528496,150.581177 33.650249,171.336395 32.168400,192.514359 
	C30.928579,210.233322 33.183064,227.825790 37.075680,245.131897 
	C41.073853,262.907318 47.326996,279.990173 56.451965,295.711884 
	C67.082253,314.027069 79.910805,330.838196 96.238159,344.584839 
	C102.157555,349.568604 108.726883,353.780396 115.274689,359.066498 
	C115.489250,361.515533 116.014832,363.984375 115.860573,366.409973 
	C115.381004,373.950470 114.643532,381.474548 113.305061,389.456665 
	C112.518616,398.977661 111.732178,408.498688 111.006996,417.997620 
	C111.006996,417.997620 110.978798,417.938904 110.322746,418.457184 
	C110.258018,421.588806 110.193283,424.720459 109.936607,428.688446 
	C109.646568,433.485596 109.356522,438.282715 108.979126,443.738678 
	C108.652885,444.776459 108.326653,445.814240 107.169975,447.025696 
	C100.809837,446.846893 95.517197,449.830658 90.492630,453.114105 
	C86.908630,455.456177 86.874855,459.114655 90.367439,461.671448 
	C92.926033,463.544403 95.956627,465.285522 99.011299,465.879364 
	C112.415665,468.485229 125.834129,471.919647 139.380814,472.680817 
	C159.616272,473.817810 180.048782,473.837677 200.084549,469.796509 
	C207.656006,468.269318 215.076248,465.575317 222.249329,462.640625 
	C226.825882,460.768250 227.364014,456.285522 223.828354,453.624084 
	C221.554718,451.912689 218.655243,451.032715 215.634506,449.137207 
	C208.807083,447.821747 201.979645,446.506256 194.635437,444.899017 
	C194.142471,444.573914 193.649506,444.248810 193.303146,443.323883 
	C193.532928,442.549316 193.762711,441.774750 194.608002,440.557404 
	C194.687790,439.042389 194.767563,437.527374 194.954132,435.247925 
	C194.916656,434.479034 194.879181,433.710114 194.941284,432.225311 
	C194.908752,431.505066 194.876221,430.784790 194.958481,429.216980 
	C194.931458,427.793640 194.904449,426.370300 194.979416,424.023712 
	C194.953903,413.996033 194.928375,403.968323 194.970688,393.488281 
	C194.970688,393.488281 194.957275,393.031006 195.058350,392.497253 
	C195.051208,392.316315 195.044052,392.135406 195.943863,391.850891 
	C222.972626,394.756653 249.600998,391.977020 275.861542,387.094360 
	C276.222839,391.537354 276.868683,395.978668 276.894592,400.423615 
	C276.990662,416.905121 276.882446,433.387848 276.243042,449.983215 
	C275.540283,450.249268 274.837494,450.515320 273.320709,451.006805 
	C269.489716,452.208405 265.213470,452.698853 261.920868,454.760376 
	C255.165527,458.989868 256.155640,463.617981 262.547577,466.863251 
	C275.652771,473.516876 290.002014,473.907837 304.123322,474.772644 
	C313.500275,475.346893 323.038788,474.840057 332.392792,473.804016 
	C342.231903,472.714264 352.053131,470.866730 361.635376,468.393890 
	C364.788269,467.580231 367.458221,464.006226 369.664307,461.163147 
	C370.105286,460.594879 367.831146,456.589783 366.125488,455.926239 
	C360.142944,453.599030 353.862000,452.038971 347.270569,450.052704 
	C346.974640,450.031860 346.680206,449.998047 345.828156,449.350494 
	C345.213623,447.460358 344.086884,445.576141 344.065002,443.679169 
	C343.877045,427.407440 343.888947,411.133392 343.911469,394.074005 
	C343.896545,392.756714 343.881622,391.439392 343.980865,389.275299 
	C343.939941,388.139374 343.898987,387.003448 343.917999,384.956635 
	C343.923737,374.961670 343.875305,364.966156 343.982361,354.972290 
	C344.003021,353.044220 344.632690,351.122681 345.565979,348.831512 
	C355.619049,338.472198 366.342224,328.671021 375.553802,317.610840 
	C386.810089,304.095642 394.705109,288.327667 401.396820,272.072266 
	C410.059540,251.028900 414.068451,228.977539 414.965759,206.314560 
	C415.447906,194.136673 414.176422,182.141663 412.124023,170.103958 
	C409.651733,155.603287 405.824036,141.565567 399.908020,128.182846 
	C387.630402,100.409317 370.680725,75.847397 346.908112,56.695480 
	C336.016632,47.920971 324.172821,40.215363 312.230164,32.890259 
	C299.980286,25.376734 286.245941,20.949677 272.406952,17.324253 
	C257.762299,13.487757 242.825394,10.791346 227.602737,11.131140 
	C216.427399,11.380590 205.215775,11.910215 194.120438,13.185853 
	C186.349762,14.079251 178.747940,16.441343 170.212173,17.954567 
	C167.336151,17.906616 164.448135,18.009172 161.586426,17.781380 
	C154.173706,17.191330 148.209106,20.885170 141.417450,23.787319 
	C140.254105,23.577578 139.090775,23.367834 137.311935,23.049623 
	C136.897690,23.080164 136.483429,23.110704 135.324265,23.011475 
	C132.873886,24.288799 130.423492,25.566126 127.491676,27.095757 
	C127.297821,27.394312 127.103958,27.692869 126.990250,27.988514 
	C126.990250,27.988514 126.983803,27.908575 126.540001,28.106234 
z"/>
<path fill="#FEF1DE" opacity="1.000000" stroke="none" 
	d="
M171.070709,18.147507 
	C178.747940,16.441343 186.349762,14.079251 194.120438,13.185853 
	C205.215775,11.910215 216.427399,11.380590 227.602737,11.131140 
	C242.825394,10.791346 257.762299,13.487757 272.406952,17.324253 
	C286.245941,20.949677 299.980286,25.376734 312.230164,32.890259 
	C324.172821,40.215363 336.016632,47.920971 346.908112,56.695480 
	C370.680725,75.847397 387.630402,100.409317 399.908020,128.182846 
	C405.824036,141.565567 409.651733,155.603287 412.124023,170.103958 
	C414.176422,182.141663 415.447906,194.136673 414.965759,206.314560 
	C414.068451,228.977539 410.059540,251.028900 401.396820,272.072266 
	C394.705109,288.327667 386.810089,304.095642 375.553802,317.610840 
	C366.342224,328.671021 355.619049,338.472198 345.031464,348.807983 
	C344.120483,348.608521 343.744049,348.432556 343.467194,347.881836 
	C343.460815,339.361603 343.354858,331.216125 343.401917,322.621368 
	C343.379089,314.778229 343.203247,307.384369 343.113922,299.663757 
	C343.142212,298.893799 343.084015,298.450623 343.182220,297.640503 
	C343.452026,293.327545 343.565460,289.381561 343.884979,285.091766 
	C344.397888,281.802124 345.170776,278.814484 344.911530,275.919312 
	C344.416687,270.392822 343.333618,264.918976 342.606293,259.029785 
	C342.170319,253.088455 341.622742,247.540573 341.389252,241.855042 
	C347.662018,236.850967 354.529999,235.284286 362.067017,236.031555 
	C363.377716,236.161530 364.741364,236.164978 366.038391,235.960052 
	C375.678680,234.437012 381.465546,230.511078 377.978882,219.661331 
	C376.240448,214.251785 373.326355,209.220062 370.974976,203.621033 
	C370.836456,200.173584 371.169220,196.989853 370.404663,194.096008 
	C367.986328,184.942520 363.245789,176.829071 356.537048,170.311646 
	C348.125916,162.140350 338.444855,155.794952 325.960419,154.784363 
	C325.475311,154.366653 325.185638,154.142654 324.794434,153.711121 
	C324.166931,153.554352 323.640991,153.605118 322.700714,153.665924 
	C321.214417,153.839279 320.142487,154.002579 318.906403,153.869690 
	C317.894470,153.310928 317.046722,153.048386 316.184235,152.339783 
	C316.671936,147.577621 316.437897,143.003494 317.839813,139.002594 
	C320.277496,132.045578 323.725342,125.442490 326.954590,118.413300 
	C327.662537,114.347870 328.539429,110.561508 328.553253,106.772003 
	C328.564850,103.591370 327.570221,100.407066 327.333252,97.209259 
	C326.933167,95.484734 326.220947,93.775330 325.600067,91.652100 
	C326.473267,87.266838 324.946777,84.377754 321.994476,81.667297 
	C311.536438,72.065895 299.818329,71.862236 288.427246,80.992058 
	C283.675201,84.800751 281.377167,89.069855 283.342987,95.492523 
	C282.829926,97.187271 282.404449,98.480690 281.928528,99.691040 
	C281.878082,99.607971 282.053192,99.671288 281.834625,100.051437 
	C281.701050,100.997047 281.786041,101.562515 281.669830,102.530518 
	C281.784973,107.467117 282.101349,112.001198 282.255005,116.929535 
	C282.538696,119.025520 282.703186,120.869934 283.479889,122.404465 
	C286.987091,129.333710 290.667633,136.175217 294.214294,143.363068 
	C294.191620,144.102539 294.240326,144.527298 294.198639,145.328415 
	C294.079651,146.477264 294.051117,147.249756 293.783081,148.198456 
	C293.471863,148.937653 293.400116,149.500671 293.265381,150.453827 
	C293.168060,151.897079 293.133759,152.950195 292.701843,154.003601 
	C290.874084,154.359268 289.443939,154.714645 287.660797,155.080826 
	C286.607513,155.169861 285.907166,155.248108 284.912811,155.233826 
	C284.120789,155.416718 283.622803,155.692154 282.904907,156.143646 
	C282.380096,156.540268 282.075195,156.760864 281.400269,156.980942 
	C272.184570,159.825974 264.239502,164.013550 258.452393,171.972183 
	C251.192825,176.696045 248.080490,184.126160 245.000366,191.289062 
	C243.357101,195.110504 243.609406,199.747040 242.843567,204.324127 
	C239.973984,211.724777 236.955948,218.718414 234.666275,225.942902 
	C233.066238,230.991440 236.680466,236.928101 241.954269,237.621735 
	C248.490082,238.481339 255.210617,238.824738 261.770081,238.324722 
	C266.684052,237.950134 270.122345,239.226486 272.915466,243.433136 
	C272.673309,246.625687 272.427643,249.387054 271.873993,252.393860 
	C271.525665,256.090637 271.485382,259.541992 271.472260,263.329468 
	C271.426361,264.106781 271.353302,264.547943 271.139771,265.133179 
	C270.871521,265.552338 270.905121,265.806030 271.087524,266.415649 
	C271.383820,268.240509 271.692657,269.688110 271.982727,271.569580 
	C271.782898,274.099548 271.885773,276.269592 271.363068,278.276672 
	C270.186432,282.794312 271.076721,285.974365 275.987976,287.542114 
	C276.249664,318.802765 276.610992,349.605713 276.894958,380.409332 
	C276.912750,382.340576 276.325073,384.277374 276.019104,386.211609 
	C249.600998,391.977020 222.972626,394.756653 195.385513,391.500854 
	C194.586319,384.434753 194.345474,377.718658 194.209473,370.753723 
	C194.255783,370.334625 194.197220,370.164398 194.254257,369.537537 
	C194.391205,362.453552 194.447189,355.826111 194.426422,349.198944 
	C194.387527,336.790222 194.304153,324.381683 194.398178,311.531403 
	C194.587524,299.710022 194.617996,288.330322 195.027557,276.850403 
	C196.210007,274.924438 197.531509,273.151581 197.724365,271.263489 
	C198.442596,264.231934 198.790176,257.162506 199.681854,250.072906 
	C204.317810,248.588074 208.989548,247.797485 212.585159,245.395798 
	C214.264832,244.273880 213.847870,240.032486 214.419128,237.212662 
	C214.514404,236.742401 214.804062,236.311523 215.367004,235.848419 
	C217.013153,235.198456 218.675797,234.881470 219.520004,233.876755 
	C227.262497,224.662567 234.224716,214.926071 237.809052,203.243484 
	C240.155350,195.596100 240.008453,187.955246 235.412628,181.167023 
	C220.009644,158.416138 199.745041,142.417511 172.157715,136.295074 
	C171.703445,134.507248 171.231598,133.095963 171.127060,131.657990 
	C170.692963,125.686646 170.170959,125.233170 164.358032,126.324585 
	C163.552597,126.475800 162.763000,126.711319 161.855515,126.708244 
	C161.536667,126.276115 161.285294,126.107925 161.167084,125.686646 
	C161.708939,125.039795 162.040298,124.474251 162.445145,124.415558 
	C172.696304,122.929367 176.326202,115.855782 177.000580,106.694038 
	C177.604691,98.486755 177.676437,90.240280 178.317352,81.874390 
	C180.936890,80.086502 183.388123,78.598099 185.333633,76.613853 
	C185.635757,76.305702 183.626175,73.730972 182.559586,71.999847 
	C186.149155,66.477005 184.418213,63.197506 177.066071,62.187248 
	C177.478989,58.060764 175.016647,53.757080 179.551636,50.949093 
	C192.075760,43.194374 189.069733,27.499689 176.521469,21.731319 
	C174.568176,20.833395 172.880966,19.356609 171.070709,18.147507 
z"/>
<path fill="#FDF1DE" opacity="1.000000" stroke="none" 
	d="
M114.999649,358.344421 
	C108.726883,353.780396 102.157555,349.568604 96.238159,344.584839 
	C79.910805,330.838196 67.082253,314.027069 56.451965,295.711884 
	C47.326996,279.990173 41.073853,262.907318 37.075680,245.131897 
	C33.183064,227.825790 30.928579,210.233322 32.168400,192.514359 
	C33.650249,171.336395 37.528496,150.581177 45.653568,130.746368 
	C52.532150,113.954491 61.335102,98.230995 72.588005,84.132324 
	C82.623337,71.559166 94.158157,60.246284 107.444199,50.922131 
	C112.059280,47.683258 116.602509,44.341984 121.856659,40.983768 
	C122.925613,41.126335 123.316452,41.332623 123.655502,41.778221 
	C123.596107,42.353134 123.676003,42.666412 123.697845,43.168159 
	C123.899582,44.125694 124.246849,44.872444 124.617775,45.967178 
	C125.923798,48.364357 126.740463,51.135464 128.579468,52.321762 
	C133.311218,55.374130 133.294266,59.240635 131.433472,63.831184 
	C125.935249,68.771378 125.773399,71.506744 130.131805,76.650597 
	C130.786057,77.422752 131.199188,78.625290 131.243805,79.649658 
	C131.465271,84.732399 131.525787,89.822151 131.297516,94.965302 
	C126.517326,99.086067 127.489960,104.957901 132.850113,107.067673 
	C134.109253,107.563278 135.654800,108.393677 136.185638,109.495453 
	C138.638153,114.585670 140.778976,119.826042 143.002365,125.332458 
	C142.956635,126.080399 142.940033,126.508484 142.504959,126.973167 
	C137.399780,126.506790 135.386246,128.501511 136.095840,133.248871 
	C136.286911,134.527161 136.063736,135.867371 135.657227,137.213440 
	C123.625839,140.500641 112.604179,145.145538 103.786179,153.664505 
	C90.553284,166.448654 79.839981,181.186996 70.709595,197.165985 
	C67.044907,203.579544 67.786285,209.010040 71.928619,214.683105 
	C81.159607,227.325195 93.233665,236.962601 105.150352,246.817551 
	C107.817490,249.023224 110.005310,249.167877 112.949753,247.680634 
	C114.134552,249.852509 114.896271,251.810913 115.964943,253.584351 
	C116.936142,255.195969 118.135971,256.706665 119.435860,258.070404 
	C120.306267,258.983551 121.527657,259.562134 122.519463,260.706635 
	C121.930321,264.520172 121.775650,268.025177 120.804916,271.287354 
	C119.607872,275.309998 120.368469,277.903320 124.451065,279.574158 
	C123.898369,285.678345 123.431099,291.343140 122.756729,297.227539 
	C122.603722,298.019012 122.657822,298.590912 122.566711,299.586792 
	C120.720047,317.863281 119.067055,335.720734 117.236862,353.559998 
	C117.067177,355.213898 115.772141,356.752350 114.999649,358.344421 
z"/>
<path fill="#403231" opacity="1.000000" stroke="none" 
	d="
M343.248901,323.070679 
	C343.354858,331.216125 343.460815,339.361603 343.307770,348.234650 
	C343.042816,358.698792 342.980347,368.435883 343.068970,378.171570 
	C343.092316,380.739075 343.582336,383.302307 343.858063,385.867523 
	C343.898987,387.003448 343.939941,388.139374 343.692139,389.926880 
	C343.549316,392.005646 343.695221,393.432861 343.841125,394.860046 
	C343.888947,411.133392 343.877045,427.407440 344.065002,443.679169 
	C344.086884,445.576141 345.213623,447.460358 345.670319,449.690247 
	C344.085510,449.734100 342.468750,449.771362 341.264221,449.085052 
	C335.871735,446.012787 330.889374,447.096466 325.744934,449.960114 
	C325.000793,448.806427 324.504517,447.857361 323.978271,446.461365 
	C323.286621,436.659088 322.770874,427.290405 321.920288,417.952209 
	C321.146240,409.454681 319.937286,400.997711 319.052460,392.509094 
	C318.269165,384.994232 317.668152,377.460388 316.961853,369.477417 
	C316.176422,359.276398 315.458221,349.529297 314.639587,339.790680 
	C314.139496,333.841614 313.592255,327.891174 312.798920,321.977173 
	C312.659790,320.939972 311.197266,320.080292 310.345947,319.138641 
	C309.490479,320.098419 308.230988,320.930664 307.877869,322.049042 
	C307.394165,323.581177 307.598663,325.330505 307.508148,326.986755 
	C306.648682,342.710876 305.789215,358.435028 304.932373,374.464508 
	C304.977356,374.968994 305.019653,375.168152 305.054688,375.544189 
	C305.047394,375.721100 304.942352,376.059296 304.674561,376.342773 
	C303.935852,383.059143 303.464935,389.492004 302.985291,396.397705 
	C302.319458,413.605713 301.662415,430.340851 300.887115,447.340698 
	C300.282135,448.183319 299.795380,448.761261 298.987457,449.272705 
	C298.450714,449.231201 298.235138,449.256134 297.956848,449.216553 
	C297.894073,449.152069 297.735321,449.067322 297.612946,448.780548 
	C296.343048,448.020233 295.195557,447.546692 293.602722,447.003540 
	C288.445526,448.020081 283.733704,449.106262 278.664856,450.111877 
	C277.822235,449.977600 277.336609,449.923859 276.850952,449.870117 
	C276.882446,433.387848 276.990662,416.905121 276.894592,400.423615 
	C276.868683,395.978668 276.222839,391.537354 275.940308,386.652985 
	C276.325073,384.277374 276.912750,382.340576 276.894958,380.409332 
	C276.610992,349.605713 276.249664,318.802765 276.360016,287.615631 
	C298.284027,293.467896 319.621216,293.710968 341.099640,286.102295 
	C341.956116,290.262695 342.490967,294.135071 343.025818,298.007477 
	C343.084015,298.450623 343.142212,298.893799 342.826141,299.965942 
	C342.312866,305.957031 342.046143,311.320404 342.097992,316.680695 
	C342.118622,318.814209 342.844238,320.940887 343.248901,323.070679 
z"/>
<path fill="#323C69" opacity="1.000000" stroke="none" 
	d="
M194.104614,371.002594 
	C194.345474,377.718658 194.586319,384.434753 194.932022,391.552643 
	C195.044052,392.135406 195.051208,392.316315 194.795502,392.859344 
	C194.284531,393.425201 194.115417,393.681152 194.014191,394.458496 
	C193.999817,401.046051 193.890518,407.166809 194.031616,413.281799 
	C194.121445,417.174622 194.582733,421.058868 194.877441,424.946960 
	C194.904449,426.370300 194.931458,427.793640 194.691757,429.830475 
	C194.563919,431.276398 194.702820,432.108795 194.841705,432.941223 
	C194.879181,433.710114 194.916656,434.479034 194.578964,435.698730 
	C194.133362,437.766418 194.062943,439.383331 193.992523,441.000214 
	C193.762711,441.774750 193.532928,442.549316 192.836304,443.691406 
	C186.470886,446.502441 180.385956,447.742615 173.933563,446.551941 
	C173.597458,441.967194 173.063965,437.738129 173.055222,433.507965 
	C172.976868,395.579742 172.990265,357.651276 172.978088,319.722900 
	C172.975555,311.823334 170.721527,310.167664 162.301971,311.922302 
	C160.266541,311.414764 158.547501,311.107544 156.041550,310.659698 
	C152.376556,333.690338 148.793182,356.208038 145.170746,379.162109 
	C144.419525,382.793243 143.583008,385.966064 143.016907,389.186432 
	C140.662781,402.578278 138.288559,415.968201 136.145264,429.394531 
	C135.440399,433.810028 135.410873,438.333313 134.730499,442.862854 
	C133.337280,443.357269 132.286057,443.796173 130.851471,444.323303 
	C125.030487,447.310577 115.246635,446.623810 112.030052,442.696350 
	C113.362473,434.627228 114.743256,426.988434 115.978729,419.326172 
	C118.370850,404.490540 120.637482,389.634644 123.037140,374.800232 
	C125.647041,358.666168 128.360870,342.548981 131.007370,326.420776 
	C133.387573,311.915375 135.737946,297.405090 138.509888,282.910278 
	C140.570969,282.907257 142.223648,282.890900 144.175995,283.168884 
	C147.334030,283.623169 150.192398,283.783142 153.515320,283.955139 
	C160.066574,283.658630 166.208054,283.752655 172.225235,282.933594 
	C178.862762,282.030121 185.386246,280.288788 192.026154,279.335114 
	C192.395309,281.538757 192.935242,283.316559 192.958694,285.101166 
	C193.056732,292.564819 192.933014,300.031586 193.055771,307.494507 
	C193.080414,308.993439 193.826065,310.480499 194.239288,311.973053 
	C194.304153,324.381683 194.387527,336.790222 194.426422,349.198944 
	C194.447189,355.826111 194.391205,362.453552 194.074265,369.617859 
	C193.709366,370.264771 193.557068,370.438049 193.584564,370.474060 
	C193.733353,370.669006 193.926666,370.829956 194.104614,371.002594 
z"/>
<path fill="#A3A1A2" opacity="1.000000" stroke="none" 
	d="
M131.234833,444.235077 
	C132.286057,443.796173 133.337280,443.357269 135.152710,442.955383 
	C139.945557,442.677155 143.977615,442.067047 148.002121,442.113159 
	C154.665894,442.189545 161.324814,442.688629 168.120087,443.307983 
	C168.676300,444.371826 169.098206,445.137329 169.423584,446.361023 
	C169.585159,450.865906 169.843277,454.912659 170.208313,459.340240 
	C171.821777,460.129456 173.326889,460.885437 174.835083,460.891663 
	C187.959488,460.945709 201.084641,460.889374 214.209106,460.800446 
	C216.311676,460.786194 218.412018,460.447418 221.526382,460.167694 
	C220.408646,458.280060 219.724792,457.125153 218.956009,455.661926 
	C217.882736,454.279022 216.894409,453.204468 215.936218,451.738403 
	C215.989685,450.824646 216.012985,450.302368 216.036301,449.780090 
	C218.655243,451.032715 221.554718,451.912689 223.828354,453.624084 
	C227.364014,456.285522 226.825882,460.768250 222.249329,462.640625 
	C215.076248,465.575317 207.656006,468.269318 200.084549,469.796509 
	C180.048782,473.837677 159.616272,473.817810 139.380814,472.680817 
	C125.834129,471.919647 112.415665,468.485229 99.011299,465.879364 
	C95.956627,465.285522 92.926033,463.544403 90.367439,461.671448 
	C86.874855,459.114655 86.908630,455.456177 90.492630,453.114105 
	C95.517197,449.830658 100.809837,446.846893 107.587830,447.336243 
	C107.282494,450.744446 106.559303,453.842041 105.778717,457.367493 
	C107.021912,458.869141 108.277283,460.800140 109.630768,460.871552 
	C116.209694,461.218628 122.817513,460.966461 129.409637,461.137268 
	C132.553925,461.218689 133.656586,459.993591 133.034760,456.579346 
	C132.465500,452.182373 131.850159,448.208710 131.234833,444.235077 
z"/>
<path fill="#ABABAB" opacity="1.000000" stroke="none" 
	d="
M170.641449,18.051037 
	C172.880966,19.356609 174.568176,20.833395 176.521469,21.731319 
	C189.069733,27.499689 192.075760,43.194374 179.551636,50.949093 
	C175.016647,53.757080 177.478989,58.060764 176.940155,62.576744 
	C176.121353,65.793365 176.073608,69.716698 174.620056,70.334976 
	C164.746521,74.534698 154.490555,76.998489 143.866425,72.688751 
	C144.245850,64.140358 144.248871,64.156929 152.507294,62.653194 
	C158.554138,61.552158 164.502090,60.228462 168.119034,55.167213 
	C163.062286,55.167213 157.985718,55.360115 152.928329,55.130623 
	C138.436386,54.473011 131.279694,43.802120 137.067291,31.419880 
	C138.297989,28.786848 140.385117,26.554121 142.077667,24.136971 
	C148.209106,20.885170 154.173706,17.191330 161.586426,17.781380 
	C164.448135,18.009172 167.336151,17.906616 170.641449,18.051037 
z"/>
<path fill="#A3A1A1" opacity="1.000000" stroke="none" 
	d="
M324.008240,446.908264 
	C324.504517,447.857361 325.000793,448.806427 325.777069,450.342010 
	C326.414246,453.248688 326.771484,455.568878 327.107727,458.253601 
	C327.824768,459.672150 328.327087,461.201599 329.338959,461.703217 
	C335.995667,465.003235 343.099213,465.954834 350.266632,464.076996 
	C351.569916,463.735565 352.183472,460.761444 353.112854,458.628662 
	C351.304962,455.565643 349.499634,452.876648 347.694336,450.187683 
	C353.862000,452.038971 360.142944,453.599030 366.125488,455.926239 
	C367.831146,456.589783 370.105286,460.594879 369.664307,461.163147 
	C367.458221,464.006226 364.788269,467.580231 361.635376,468.393890 
	C352.053131,470.866730 342.231903,472.714264 332.392792,473.804016 
	C323.038788,474.840057 313.500275,475.346893 304.123322,474.772644 
	C290.002014,473.907837 275.652771,473.516876 262.547577,466.863251 
	C256.155640,463.617981 255.165527,458.989868 261.920868,454.760376 
	C265.213470,452.698853 269.489716,452.208405 273.673309,451.258270 
	C273.974365,451.991699 273.922821,452.473663 273.775940,453.061157 
	C273.680634,453.166656 273.642395,453.448486 273.342529,453.585785 
	C272.654144,455.204193 272.265625,456.685333 271.895935,458.551453 
	C271.887451,462.353363 274.129272,463.937836 276.991791,463.797546 
	C282.406769,463.532196 287.840088,462.919098 293.160004,461.898834 
	C294.653717,461.612366 295.778381,459.401581 297.144897,457.806366 
	C297.274261,457.181854 297.331055,456.824463 297.400208,456.414398 
	C297.412567,456.361755 297.356140,456.269562 297.608246,456.163330 
	C297.977600,455.721436 298.094879,455.385773 298.316345,454.807129 
	C298.456787,454.391571 298.492981,454.219055 298.684265,453.820190 
	C298.857452,453.051819 298.875580,452.509827 298.930847,451.649231 
	C298.984741,450.904297 299.001556,450.477997 299.129761,449.889374 
	C299.241150,449.727051 299.308655,449.339172 299.308655,449.339172 
	C299.795380,448.761261 300.282135,448.183319 301.344635,447.396912 
	C309.282990,447.095032 316.645630,447.001678 324.008240,446.908264 
z"/>
<path fill="#1F2746" opacity="1.000000" stroke="none" 
	d="
M138.101486,282.896942 
	C135.737946,297.405090 133.387573,311.915375 131.007370,326.420776 
	C128.360870,342.548981 125.647041,358.666168 123.037140,374.800232 
	C120.637482,389.634644 118.370850,404.490540 115.978729,419.326172 
	C114.743256,426.988434 113.362473,434.627228 111.661476,442.665955 
	C110.539238,443.063507 109.802864,443.071686 109.066483,443.079865 
	C109.356522,438.282715 109.646568,433.485596 110.282028,427.974548 
	C110.744560,424.153412 110.861679,421.046143 110.978798,417.938904 
	C110.978798,417.938904 111.006996,417.997620 111.268417,417.738892 
	C112.355255,407.988434 113.180687,398.496704 114.006119,389.005005 
	C114.643532,381.474548 115.381004,373.950470 115.860573,366.409973 
	C116.014832,363.984375 115.489250,361.515533 115.137161,358.705444 
	C115.772141,356.752350 117.067177,355.213898 117.236862,353.559998 
	C119.067055,335.720734 120.720047,317.863281 122.799881,299.500397 
	C123.106796,298.329315 123.035316,297.668640 122.963837,297.007965 
	C123.431099,291.343140 123.898369,285.678345 124.811127,279.580139 
	C129.538239,280.396820 133.819855,281.646881 138.101486,282.896942 
z"/>
<path fill="#636363" opacity="1.000000" stroke="none" 
	d="
M141.747559,23.962143 
	C140.385117,26.554121 138.297989,28.786848 137.067291,31.419880 
	C131.279694,43.802120 138.436386,54.473011 152.928329,55.130623 
	C157.985718,55.360115 163.062286,55.167213 168.119034,55.167213 
	C164.502090,60.228462 158.554138,61.552158 152.507294,62.653194 
	C144.248871,64.156929 144.245850,64.140358 143.485611,72.687332 
	C137.390076,72.283539 132.430283,70.614998 131.784576,63.770081 
	C133.294266,59.240635 133.311218,55.374130 128.579468,52.321762 
	C126.740463,51.135464 125.923798,48.364357 124.717491,45.593941 
	C124.476837,44.234264 124.160110,43.595818 123.843384,42.957371 
	C123.676003,42.666412 123.596107,42.353134 123.748489,41.325264 
	C124.579834,37.023689 125.266396,33.414387 125.952957,29.805088 
	C125.952957,29.805088 125.985214,29.356579 126.257553,29.024937 
	C126.743507,28.467781 126.894814,28.206209 126.983803,27.908575 
	C126.983803,27.908575 126.990250,27.988514 127.188583,27.861774 
	C127.582321,27.437838 127.777718,27.140642 127.973114,26.843449 
	C130.423492,25.566126 132.873886,24.288799 135.836014,23.269356 
	C136.874313,23.404188 137.400879,23.281139 137.927429,23.158091 
	C139.090775,23.367834 140.254105,23.577578 141.747559,23.962143 
z"/>
<path fill="#5D4E43" opacity="1.000000" stroke="none" 
	d="
M215.906067,452.129883 
	C216.894409,453.204468 217.882736,454.279022 218.585754,455.829956 
	C214.560577,456.211304 210.817352,455.966583 207.081421,456.049591 
	C196.337799,456.288269 185.593735,456.583374 174.858917,457.060486 
	C173.248123,457.132050 171.686020,458.299103 170.101379,458.959381 
	C169.843277,454.912659 169.585159,450.865906 169.739044,446.435791 
	C171.427216,446.337280 172.703384,446.622192 173.979553,446.907104 
	C180.385956,447.742615 186.470886,446.502441 192.762985,443.991302 
	C193.649506,444.248810 194.142471,444.573914 195.060822,445.336365 
	C197.374878,446.690582 199.180069,447.901825 201.168808,448.465912 
	C206.036087,449.846436 210.988144,450.928009 215.906067,452.129883 
z"/>
<path fill="#5C4D42" opacity="1.000000" stroke="none" 
	d="
M109.022812,443.409271 
	C109.802864,443.071686 110.539238,443.063507 111.644188,443.085693 
	C115.246635,446.623810 125.030487,447.310577 130.851471,444.323303 
	C131.850159,448.208710 132.465500,452.182373 132.576065,456.576508 
	C123.326241,456.977875 114.581184,456.958771 105.836121,456.939667 
	C106.559303,453.842041 107.282494,450.744446 108.003052,447.249420 
	C108.326653,445.814240 108.652885,444.776459 109.022812,443.409271 
z"/>
<path fill="#B11C1C" opacity="1.000000" stroke="none" 
	d="
M347.482452,450.120178 
	C349.499634,452.876648 351.304962,455.565643 352.797882,458.755646 
	C351.334259,459.032867 350.191345,458.704834 349.029633,458.612183 
	C347.645874,458.501831 346.220428,458.425201 344.858368,458.632202 
	C341.942535,459.075348 339.031586,460.248871 336.163910,460.119507 
	C333.124817,459.982361 330.138214,458.681641 327.128693,457.889069 
	C326.771484,455.568878 326.414246,453.248688 326.024902,450.546600 
	C330.889374,447.096466 335.871735,446.012787 341.264221,449.085052 
	C342.468750,449.771362 344.085510,449.734100 345.949860,449.990662 
	C346.680206,449.998047 346.974640,450.031860 347.482452,450.120178 
z"/>
<path fill="#908783" opacity="1.000000" stroke="none" 
	d="
M215.936234,451.738403 
	C210.988144,450.928009 206.036087,449.846436 201.168808,448.465912 
	C199.180069,447.901825 197.374878,446.690582 195.319214,445.482239 
	C201.979645,446.506256 208.807083,447.821747 215.835403,449.458649 
	C216.012985,450.302368 215.989685,450.824646 215.936234,451.738403 
z"/>
<path fill="#574C47" opacity="1.000000" stroke="none" 
	d="
M343.888031,385.412079 
	C343.582336,383.302307 343.092316,380.739075 343.068970,378.171570 
	C342.980347,368.435883 343.042816,358.698792 343.208191,348.609436 
	C343.744049,348.432556 344.120483,348.608521 344.739197,348.991333 
	C344.632690,351.122681 344.003021,353.044220 343.982361,354.972290 
	C343.875305,364.966156 343.923737,374.961670 343.888031,385.412079 
z"/>
<path fill="#474A61" opacity="1.000000" stroke="none" 
	d="
M113.655594,389.230835 
	C113.180687,398.496704 112.355255,407.988434 111.237785,417.749908 
	C111.732178,408.498688 112.518616,398.977661 113.655594,389.230835 
z"/>
<path fill="#414566" opacity="1.000000" stroke="none" 
	d="
M194.928436,424.485352 
	C194.582733,421.058868 194.121445,417.174622 194.031616,413.281799 
	C193.890518,407.166809 193.999817,401.046051 194.233826,394.453552 
	C194.464554,393.979370 194.902863,393.940643 194.902863,393.940643 
	C194.928375,403.968323 194.953903,413.996033 194.928436,424.485352 
z"/>
<path fill="#7A7878" opacity="1.000000" stroke="none" 
	d="
M125.638123,30.008036 
	C125.266396,33.414387 124.579834,37.023689 123.800285,41.085953 
	C123.316452,41.332623 122.925613,41.126335 122.204445,40.891296 
	C123.023849,37.312027 124.173576,33.761505 125.638123,30.008036 
z"/>
<path fill="#A5322E" opacity="1.000000" stroke="none" 
	d="
M273.871277,452.955627 
	C273.922821,452.473663 273.974365,451.991699 274.080322,451.145569 
	C274.837494,450.515320 275.540283,450.249268 276.546997,449.926636 
	C277.336609,449.923859 277.822235,449.977600 278.582153,450.431946 
	C277.194733,451.540253 275.532990,452.247925 273.871277,452.955627 
z"/>
<path fill="#474A61" opacity="1.000000" stroke="none" 
	d="
M110.650772,418.198059 
	C110.861679,421.046143 110.744560,424.153412 110.377998,427.556366 
	C110.193283,424.720459 110.258018,421.588806 110.650772,418.198059 
z"/>
<path fill="#414566" opacity="1.000000" stroke="none" 
	d="
M194.300262,440.778809 
	C194.062943,439.383331 194.133362,437.766418 194.525574,436.080933 
	C194.767563,437.527374 194.687790,439.042389 194.300262,440.778809 
z"/>
<path fill="#574C47" opacity="1.000000" stroke="none" 
	d="
M343.876282,394.467041 
	C343.695221,393.432861 343.549316,392.005646 343.635071,390.350281 
	C343.881622,391.439392 343.896545,392.756714 343.876282,394.467041 
z"/>
<path fill="#414566" opacity="1.000000" stroke="none" 
	d="
M194.891495,432.583252 
	C194.702820,432.108795 194.563919,431.276398 194.634369,430.254272 
	C194.876221,430.784790 194.908752,431.505066 194.891495,432.583252 
z"/>
<path fill="#7A7878" opacity="1.000000" stroke="none" 
	d="
M137.619690,23.103857 
	C137.400879,23.281139 136.874313,23.404188 136.208466,23.334240 
	C136.483429,23.110704 136.897690,23.080164 137.619690,23.103857 
z"/>
<path fill="#7A7878" opacity="1.000000" stroke="none" 
	d="
M127.732391,26.969601 
	C127.777718,27.140642 127.582321,27.437838 127.148514,27.863232 
	C127.103958,27.692869 127.297821,27.394312 127.732391,26.969601 
z"/>
<path fill="#7A7878" opacity="1.000000" stroke="none" 
	d="
M126.761902,28.007404 
	C126.894814,28.206209 126.743507,28.467781 126.337296,28.814720 
	C126.090225,28.570848 126.221985,28.294210 126.761902,28.007404 
z"/>
<path fill="#616161" opacity="1.000000" stroke="none" 
	d="
M194.936768,393.714478 
	C194.902863,393.940643 194.464554,393.979370 194.244934,393.984314 
	C194.115417,393.681152 194.284531,393.425201 194.744965,393.126221 
	C194.957275,393.031006 194.970688,393.488281 194.936768,393.714478 
z"/>
<path fill="#616161" opacity="1.000000" stroke="none" 
	d="
M191.959396,278.912415 
	C185.386246,280.288788 178.862762,282.030121 172.225235,282.933594 
	C166.208054,283.752655 160.066574,283.658630 153.519089,283.548279 
	C154.030960,275.919708 155.529190,268.734558 155.867340,261.495270 
	C156.579590,246.246628 157.008850,230.968231 156.945877,215.704559 
	C156.883347,200.551666 154.402954,185.700211 149.267700,171.358597 
	C146.619003,163.961395 147.531219,162.202316 155.441650,160.466400 
	C158.313293,159.836227 161.385773,160.098572 164.368240,160.004684 
	C166.121078,159.949478 167.877060,159.994583 170.851486,159.994583 
	C168.721771,152.370041 166.870956,145.743973 165.260712,138.833893 
	C167.770554,137.919708 170.039795,137.289536 172.309052,136.659363 
	C199.745041,142.417511 220.009644,158.416138 235.412628,181.167023 
	C240.008453,187.955246 240.155350,195.596100 237.809052,203.243484 
	C234.224716,214.926071 227.262497,224.662567 219.520004,233.876755 
	C218.675797,234.881470 217.013153,235.198456 215.149475,235.595917 
	C210.297714,231.909439 206.026596,228.461456 201.737305,224.580414 
	C203.072220,219.778168 203.994659,215.211441 205.885437,211.088821 
	C208.352448,205.709717 211.586594,200.682434 214.564011,195.372955 
	C209.301804,192.096619 204.390503,189.038773 200.037277,186.328384 
	C200.037277,199.271667 200.037277,212.045563 199.806656,225.243530 
	C199.476303,233.814178 199.376587,241.960724 199.276855,250.107285 
	C198.790176,257.162506 198.442596,264.231934 197.724365,271.263489 
	C197.531509,273.151581 196.210007,274.924438 194.755890,276.951904 
	C193.389893,277.739899 192.674637,278.326172 191.959396,278.912415 
M172.831512,224.959579 
	C172.992569,219.985306 170.936493,217.278976 167.566757,218.463577 
	C166.146469,218.962860 164.333099,220.731171 164.244019,222.028732 
	C164.131485,223.668106 165.273224,226.507660 166.458054,226.858856 
	C168.201279,227.375565 170.460907,226.150177 172.831512,224.959579 
M161.985092,276.432434 
	C164.068649,276.670929 166.245026,277.347748 168.190781,276.935638 
	C168.986603,276.767059 169.884750,274.151978 169.681519,272.809540 
	C169.265671,270.062561 167.357483,268.298096 164.367310,269.161041 
	C160.954269,270.146057 160.339737,272.668701 161.985092,276.432434 
M164.972824,169.652298 
	C160.044357,169.420456 157.359451,171.621841 158.511688,174.970261 
	C159.638702,178.245361 162.444702,178.976318 164.929031,177.681015 
	C168.377029,175.883286 167.587067,172.866943 164.972824,169.652298 
M169.617722,252.200012 
	C172.243668,250.358551 174.552216,248.141998 171.402115,245.207611 
	C170.341675,244.219803 167.413361,244.006119 166.180252,244.779816 
	C164.938751,245.558762 163.842453,248.354645 164.335449,249.625656 
	C164.860321,250.978912 167.323395,251.580414 169.617722,252.200012 
M168.910477,193.562332 
	C167.062820,194.521576 164.957962,195.207245 163.498474,196.579361 
	C162.941696,197.102798 163.398315,199.805618 164.221222,200.438522 
	C165.473679,201.401810 167.597855,202.071289 169.083832,201.722824 
	C172.553909,200.909073 172.644028,197.630783 168.910477,193.562332 
z"/>
<path fill="#F9D68F" opacity="1.000000" stroke="none" 
	d="
M340.778046,285.814270 
	C319.621216,293.710968 298.284027,293.467896 276.442017,287.158020 
	C271.076721,285.974365 270.186432,282.794312 271.363068,278.276672 
	C271.885773,276.269592 271.782898,274.099548 272.298035,271.659302 
	C275.844757,274.679138 279.057465,278.043152 282.963257,282.132965 
	C287.140228,265.671631 290.996033,250.476074 295.160797,235.095871 
	C300.731506,234.937668 305.993195,234.964111 311.297485,235.371094 
	C314.639771,250.413071 317.939453,265.074493 321.352142,280.237976 
	C328.807587,272.898163 335.651154,266.160736 342.494720,259.423279 
	C343.333618,264.918976 344.416687,270.392822 344.911530,275.919312 
	C345.170776,278.814484 344.397888,281.802124 343.574219,284.986755 
	C342.297577,285.421783 341.537811,285.618011 340.778046,285.814270 
z"/>
<path fill="#F7B386" opacity="1.000000" stroke="none" 
	d="
M293.099426,154.003326 
	C293.133759,152.950195 293.168060,151.897079 293.511719,150.389496 
	C293.888245,149.297440 293.955414,148.659851 294.022552,148.022263 
	C294.051117,147.249756 294.079651,146.477264 294.552856,145.348984 
	C299.393738,145.993195 303.755066,147.426437 308.202942,147.784241 
	C310.034607,147.931580 312.052338,145.765747 313.985474,144.652069 
	C313.735321,144.117493 313.485199,143.582916 313.235077,143.048340 
	C306.918640,143.048340 300.602173,143.048340 294.285706,143.048340 
	C290.667633,136.175217 286.987091,129.333710 283.479889,122.404465 
	C282.703186,120.869934 282.538696,119.025520 282.596985,117.048370 
	C284.463959,114.876328 285.978180,113.066673 287.132019,111.050751 
	C287.833252,109.825607 287.544952,107.840691 288.446228,106.956291 
	C292.787445,102.696396 297.381989,98.694633 301.871124,94.586441 
	C301.855621,94.571617 301.850769,94.590202 302.192322,94.609299 
	C302.742218,94.535744 302.950592,94.443092 303.433228,94.436523 
	C304.074097,94.439140 304.440704,94.355667 305.139587,94.425003 
	C306.277405,94.742126 307.086334,94.891472 307.887970,95.072998 
	C318.428131,97.459961 324.899872,103.055756 324.017578,114.876335 
	C323.928223,116.073250 325.792175,117.415947 326.749664,118.691002 
	C323.725342,125.442490 320.277496,132.045578 317.839813,139.002594 
	C316.437897,143.003494 316.671936,147.577621 315.990540,152.663422 
	C312.337860,154.958023 308.865295,157.690659 305.390198,157.693893 
	C301.294434,157.697693 297.196442,155.338165 293.099426,154.003326 
M309.808319,134.501068 
	C310.441528,133.080856 311.074707,131.660660 311.707916,130.240448 
	C310.211884,129.838684 308.734467,129.324890 307.213684,129.072144 
	C306.083740,128.884354 304.870178,128.877777 303.743134,129.073792 
	C302.237305,129.335678 300.779144,129.871780 299.300507,130.290115 
	C300.146942,131.859421 300.993408,133.428711 302.769501,135.017471 
	C304.955109,135.007294 307.140717,134.997116 309.808319,134.501068 
z"/>
<path fill="#F6B48A" opacity="1.000000" stroke="none" 
	d="
M143.031494,125.012604 
	C140.778976,119.826042 138.638153,114.585670 136.185638,109.495453 
	C135.654800,108.393677 134.109253,107.563278 132.850113,107.067673 
	C127.489960,104.957901 126.517326,99.086067 131.566589,95.217751 
	C133.974625,96.907280 135.811142,99.615799 137.549561,99.554230 
	C139.318420,99.491592 141.095383,96.796440 142.670990,95.073166 
	C143.860947,93.771690 144.699722,92.155670 145.765549,90.732628 
	C147.457138,88.474129 149.882324,86.492851 150.755295,83.965363 
	C151.749786,81.086021 152.963959,80.594139 155.733017,80.816643 
	C163.133896,81.411331 170.564346,81.638115 177.983032,82.011101 
	C177.676437,90.240280 177.604691,98.486755 177.000580,106.694038 
	C176.326202,115.855782 172.696304,122.929367 162.445145,124.415558 
	C162.040298,124.474251 161.708939,125.039795 160.917236,125.685333 
	C160.491119,126.001495 159.991302,125.996269 159.917862,125.631248 
	C154.794388,123.718124 149.744354,122.170013 144.249146,120.485435 
	C144.164169,122.170311 144.093155,123.578278 143.774445,124.991737 
	C143.526764,124.997223 143.031494,125.012604 143.031494,125.012604 
M156.996750,112.995491 
	C156.996750,112.995491 157.010056,112.936760 157.027100,113.667969 
	C159.049225,117.558731 162.379013,118.469559 166.239655,117.244156 
	C169.434509,116.230072 172.250366,114.544601 171.452393,109.374580 
	C170.002213,110.553093 169.091690,111.293030 167.971924,111.315002 
	C164.344482,108.343002 159.943085,108.618881 156.590424,112.207726 
	C156.745789,112.473022 156.901138,112.738327 156.996750,112.995491 
M157.207565,97.812500 
	C158.001724,96.422119 158.795868,95.031738 159.590012,93.641357 
	C157.797363,92.631607 156.004715,91.621864 153.970551,90.476082 
	C152.436890,94.557884 153.062241,96.811256 157.207565,97.812500 
M168.268570,94.460709 
	C169.758560,95.429924 171.248535,96.399139 172.738525,97.368362 
	C173.047836,96.058655 174.042206,94.312851 173.538116,93.520927 
	C172.019684,91.135559 170.055466,91.497169 168.268570,94.460709 
M162.383942,106.149963 
	C164.169434,105.803787 165.954910,105.457603 167.740402,105.111427 
	C167.101761,104.134048 166.463135,103.156670 165.824493,102.179298 
	C164.590057,103.259514 163.355621,104.339737 162.383942,106.149963 
z"/>
<path fill="#FDDA91" opacity="1.000000" stroke="none" 
	d="
M326.155884,154.978088 
	C338.444855,155.794952 348.125916,162.140350 356.537048,170.311646 
	C363.245789,176.829071 367.986328,184.942520 370.404663,194.096008 
	C371.169220,196.989853 370.836456,200.173584 370.619751,203.629395 
	C366.443695,206.744949 362.653809,209.455795 358.436462,212.122162 
	C351.850739,212.929688 347.434113,210.803818 344.754272,204.938660 
	C344.228180,203.787216 342.089600,203.372513 340.720245,202.264740 
	C343.525116,195.343369 346.304413,188.775253 349.351746,182.021133 
	C349.810333,181.228302 350.000854,180.621445 350.438263,179.703827 
	C351.485443,171.161606 351.464142,171.154816 343.576630,171.107498 
	C338.255463,171.075577 332.934662,170.984375 327.519379,170.486511 
	C327.002014,165.028259 326.578949,160.003174 326.155884,154.978088 
z"/>
<path fill="#BF221D" opacity="1.000000" stroke="none" 
	d="
M342.606323,259.029816 
	C335.651154,266.160736 328.807587,272.898163 321.352142,280.237976 
	C317.939453,265.074493 314.639771,250.413071 311.638977,235.204346 
	C314.839539,234.464508 317.741150,234.271942 320.785034,234.390030 
	C321.844513,235.229324 322.761719,235.757996 323.723022,236.286621 
	C323.767151,236.286606 323.784668,236.200150 323.879913,236.449707 
	C324.274597,236.887939 324.574005,237.076614 325.107910,237.541412 
	C330.586609,239.209274 335.830902,240.600998 341.075134,241.992706 
	C341.622742,247.540573 342.170319,253.088455 342.606323,259.029816 
z"/>
<path fill="#111A32" opacity="1.000000" stroke="none" 
	d="
M178.317368,81.874390 
	C170.564346,81.638115 163.133896,81.411331 155.733017,80.816643 
	C152.963959,80.594139 151.749786,81.086021 150.755295,83.965363 
	C149.882324,86.492851 147.457138,88.474129 145.765549,90.732628 
	C144.699722,92.155670 143.860947,93.771690 142.670990,95.073166 
	C141.095383,96.796440 139.318420,99.491592 137.549561,99.554230 
	C135.811142,99.615799 133.974625,96.907280 131.912079,95.161880 
	C131.525787,89.822151 131.465271,84.732399 131.243805,79.649658 
	C131.199188,78.625290 130.786057,77.422752 130.131805,76.650597 
	C125.773399,71.506744 125.935249,68.771378 131.433472,63.831184 
	C132.430283,70.614998 137.390076,72.283539 143.407745,73.141098 
	C154.490555,76.998489 164.746521,74.534698 174.620056,70.334976 
	C176.073608,69.716698 176.121353,65.793365 176.945435,63.009720 
	C184.418213,63.197506 186.149155,66.477005 182.559586,71.999847 
	C183.626175,73.730972 185.635757,76.305702 185.333633,76.613853 
	C183.388123,78.598099 180.936890,80.086502 178.317368,81.874390 
z"/>
<path fill="#FBB788" opacity="1.000000" stroke="none" 
	d="
M272.911987,243.001938 
	C270.122345,239.226486 266.684052,237.950134 261.770081,238.324722 
	C255.210617,238.824738 248.490082,238.481339 241.954269,237.621735 
	C236.680466,236.928101 233.066238,230.991440 234.666275,225.942902 
	C236.955948,218.718414 239.973984,211.724777 243.215271,204.329498 
	C247.852264,206.696838 251.954987,209.367233 255.992630,212.384995 
	C255.269684,213.867386 254.354828,214.930420 254.012207,216.153717 
	C253.452255,218.153061 252.475830,221.739456 253.061661,222.051300 
	C255.215424,223.197662 257.939667,223.272202 260.598419,224.170532 
	C260.784607,225.920868 261.164612,227.354752 260.798462,228.562363 
	C259.318939,233.442139 261.647552,234.277893 265.869019,234.130371 
	C272.519775,233.897949 279.187622,233.991180 285.842377,234.167557 
	C287.231018,234.204361 288.594208,235.202286 289.629364,235.899506 
	C285.074310,237.490646 280.822296,238.844147 276.664429,240.442474 
	C275.288910,240.971207 274.155884,242.130783 272.911987,243.001938 
z"/>
<path fill="#FBB98B" opacity="1.000000" stroke="none" 
	d="
M341.389282,241.855042 
	C335.830902,240.600998 330.586609,239.209274 325.033539,237.271301 
	C324.411377,236.550095 324.098022,236.375122 323.784668,236.200150 
	C323.784668,236.200150 323.767151,236.286606 323.832703,235.926422 
	C323.931000,235.319138 323.963776,235.072037 324.427063,234.832184 
	C327.880402,234.638809 330.903259,234.438187 334.037079,234.560822 
	C335.789490,234.664978 337.430908,234.445862 339.505798,234.187820 
	C343.211884,234.361450 346.484436,234.573990 350.120789,234.808624 
	C354.607178,232.454407 351.922241,229.672455 350.929260,226.659760 
	C350.940186,225.885025 350.973480,225.443207 351.412659,225.002563 
	C355.584564,223.805984 359.350616,222.608246 363.181335,221.389954 
	C361.482727,217.761246 360.173340,214.963928 358.863922,212.166626 
	C362.653809,209.455795 366.443695,206.744949 370.588806,204.025772 
	C373.326355,209.220062 376.240448,214.251785 377.978882,219.661331 
	C381.465546,230.511078 375.678680,234.437012 366.038391,235.960052 
	C364.741364,236.164978 363.377716,236.161530 362.067017,236.031555 
	C354.529999,235.284286 347.662018,236.850967 341.389282,241.855042 
z"/>
<path fill="#BE231E" opacity="1.000000" stroke="none" 
	d="
M272.915466,243.433136 
	C274.155884,242.130783 275.288910,240.971207 276.664429,240.442474 
	C280.822296,238.844147 285.074310,237.490646 289.953186,235.834778 
	C292.028473,235.512054 293.440125,235.396286 294.851807,235.280518 
	C290.996033,250.476074 287.140228,265.671631 282.963257,282.132965 
	C279.057465,278.043152 275.844757,274.679138 272.316772,271.225403 
	C271.692657,269.688110 271.383820,268.240509 271.271454,266.289062 
	C271.640289,265.464539 271.577759,265.199158 271.280273,264.989075 
	C271.353302,264.547943 271.426361,264.106781 271.658783,262.909485 
	C271.939453,258.818359 272.060730,255.483383 272.182007,252.148407 
	C272.427643,249.387054 272.673309,246.625687 272.915466,243.433136 
z"/>
<path fill="#FCDB92" opacity="1.000000" stroke="none" 
	d="
M256.057709,212.037613 
	C251.954987,209.367233 247.852264,206.696838 243.377853,204.021088 
	C243.609406,199.747040 243.357101,195.110504 245.000366,191.289062 
	C248.080490,184.126160 251.192825,176.696045 258.789124,172.010895 
	C259.680725,172.004211 259.904724,172.021179 260.114746,172.482147 
	C260.074799,175.597702 260.048828,178.269257 260.015045,181.329346 
	C260.733429,182.789505 261.459656,183.861130 262.435791,185.164139 
	C265.515594,191.236160 268.345520,197.076782 270.812134,202.982941 
	C269.370178,203.966522 267.680969,204.689941 267.315857,205.835434 
	C265.476593,211.605392 259.907959,210.195145 256.057709,212.037613 
z"/>
<path fill="#CB2826" opacity="1.000000" stroke="none" 
	d="
M283.430603,95.091202 
	C281.377167,89.069855 283.675201,84.800751 288.427246,80.992058 
	C299.818329,71.862236 311.536438,72.065895 321.994476,81.667297 
	C324.946777,84.377754 326.473267,87.266838 325.275208,91.579803 
	C317.172546,85.079872 296.968445,84.302994 287.444244,93.384811 
	C286.459442,94.323883 284.785034,94.539757 283.430603,95.091202 
z"/>
<path fill="#FDD690" opacity="1.000000" stroke="none" 
	d="
M292.701843,154.003601 
	C297.196442,155.338165 301.294434,157.697693 305.390198,157.693893 
	C308.865295,157.690659 312.337860,154.958023 316.005249,153.109482 
	C317.046722,153.048386 317.894470,153.310928 319.049408,154.247955 
	C319.564423,160.267563 319.772278,165.612686 319.513550,170.991684 
	C308.459381,171.000549 297.871826,170.975540 287.269714,170.504013 
	C287.508057,165.061676 287.760925,160.065857 288.013763,155.070038 
	C289.443939,154.714645 290.874084,154.359268 292.701843,154.003601 
z"/>
<path fill="#9C9A97" opacity="1.000000" stroke="none" 
	d="
M172.157715,136.295074 
	C170.039795,137.289536 167.770554,137.919708 164.879059,138.857117 
	C161.469910,139.744370 158.682983,140.324387 155.460434,140.882385 
	C148.693436,139.633270 142.362076,138.406219 136.030716,137.179153 
	C136.063736,135.867371 136.286911,134.527161 136.095840,133.248871 
	C135.386246,128.501511 137.399780,126.506790 142.739563,127.236290 
	C146.672867,129.480255 149.953094,131.497726 153.333984,133.577087 
	C156.089615,131.448044 159.027832,129.177933 161.966064,126.907806 
	C162.763000,126.711319 163.552597,126.475800 164.358032,126.324585 
	C170.170959,125.233170 170.692963,125.686646 171.127060,131.657990 
	C171.231598,133.095963 171.703445,134.507248 172.157715,136.295074 
z"/>
<path fill="#EFB58B" opacity="1.000000" stroke="none" 
	d="
M199.681839,250.072906 
	C199.376587,241.960724 199.476303,233.814178 200.018250,225.254761 
	C200.892151,224.899094 201.323807,224.956284 201.755478,225.013474 
	C206.026596,228.461456 210.297714,231.909439 214.786362,235.609924 
	C214.804062,236.311523 214.514404,236.742401 214.419128,237.212662 
	C213.847870,240.032486 214.264832,244.273880 212.585159,245.395798 
	C208.989548,247.797485 204.317810,248.588074 199.681839,250.072906 
z"/>
<path fill="#AA100F" opacity="1.000000" stroke="none" 
	d="
M283.342987,95.492523 
	C284.785034,94.539757 286.459442,94.323883 287.444244,93.384811 
	C296.968445,84.302994 317.172546,85.079872 325.183868,91.993629 
	C326.220947,93.775330 326.933167,95.484734 326.937622,97.185440 
	C324.441162,96.792633 322.652527,96.408531 320.794189,95.831558 
	C320.541382,95.388535 320.299194,95.300072 319.634003,95.280304 
	C317.176971,94.477051 315.083893,93.766800 312.852142,92.842117 
	C312.129028,92.703979 311.544586,92.780266 310.630035,92.833145 
	C309.638977,92.779221 308.977997,92.748695 308.140686,92.398300 
	C303.488403,89.971046 300.025360,92.023018 296.400940,94.878189 
	C291.330444,97.339233 286.600739,99.733612 281.871033,102.127991 
	C281.786041,101.562515 281.701050,100.997047 281.810608,100.063431 
	C282.005157,99.695274 281.979004,99.774109 281.979004,99.774109 
	C282.404449,98.480690 282.829926,97.187271 283.342987,95.492523 
z"/>
<path fill="#FCD790" opacity="1.000000" stroke="none" 
	d="
M260.128723,172.038147 
	C259.904724,172.021179 259.680725,172.004211 259.119995,171.948532 
	C264.239502,164.013550 272.184570,159.825974 281.312805,157.377502 
	C281.158966,162.174332 280.722565,166.574097 279.797180,171.018402 
	C272.915009,171.388016 266.521881,171.713089 260.128723,172.038147 
z"/>
<path fill="#32251A" opacity="1.000000" stroke="none" 
	d="
M308.317017,92.718170 
	C308.977997,92.748695 309.638977,92.779221 310.767517,93.068542 
	C311.820282,93.237083 312.405548,93.146812 312.990784,93.056549 
	C315.083893,93.766800 317.176971,94.477051 319.749023,95.421188 
	C320.409180,95.831131 320.621155,95.954247 320.863861,96.024422 
	C322.652527,96.408531 324.441162,96.792633 326.625458,97.200562 
	C327.570221,100.407066 328.564850,103.591370 328.553253,106.772003 
	C328.539429,110.561508 327.662537,114.347870 326.954590,118.413292 
	C325.792175,117.415947 323.928223,116.073250 324.017578,114.876335 
	C324.899872,103.055756 318.428131,97.459961 307.887970,95.072998 
	C307.086334,94.891472 306.277405,94.742126 305.388245,94.117813 
	C306.308746,93.344589 307.312897,93.031380 308.317017,92.718170 
z"/>
<path fill="#37241B" opacity="1.000000" stroke="none" 
	d="
M281.669800,102.530518 
	C286.600739,99.733612 291.330444,97.339233 296.842896,94.894058 
	C299.045959,94.762596 300.466278,94.681923 301.886627,94.601257 
	C297.381989,98.694633 292.787445,102.696396 288.446228,106.956291 
	C287.544952,107.840691 287.833252,109.825607 287.132019,111.050751 
	C285.978180,113.066673 284.463959,114.876328 282.759705,116.654106 
	C282.101349,112.001198 281.784973,107.467117 281.669800,102.530518 
z"/>
<path fill="#BA2A1C" opacity="1.000000" stroke="none" 
	d="
M319.980103,170.957825 
	C319.772278,165.612686 319.564423,160.267563 319.213562,154.544159 
	C320.142487,154.002579 321.214417,153.839279 322.973694,153.816208 
	C324.072693,153.943848 324.484344,153.931259 324.895996,153.918671 
	C325.185638,154.142654 325.475311,154.366653 325.960419,154.784363 
	C326.578949,160.003174 327.002014,165.028259 327.034607,170.569092 
	C324.422821,171.042496 322.201447,171.000153 319.980103,170.957825 
z"/>
<path fill="#BA2A1C" opacity="1.000000" stroke="none" 
	d="
M280.286194,170.973862 
	C280.722565,166.574097 281.158966,162.174332 281.682800,157.378006 
	C282.075195,156.760864 282.380096,156.540268 283.190430,156.204254 
	C284.199493,155.834656 284.703156,155.580505 285.206848,155.326355 
	C285.907166,155.248108 286.607513,155.169861 287.660797,155.080841 
	C287.760925,160.065857 287.508057,165.061676 286.900024,170.575653 
	C284.458649,171.053818 282.372406,171.013840 280.286194,170.973862 
z"/>
<path fill="#33375A" opacity="1.000000" stroke="none" 
	d="
M192.026154,279.335114 
	C192.674637,278.326172 193.389893,277.739899 194.376801,277.052124 
	C194.617996,288.330322 194.587524,299.710022 194.398178,311.531403 
	C193.826065,310.480499 193.080414,308.993439 193.055771,307.494507 
	C192.933014,300.031586 193.056732,292.564819 192.958694,285.101166 
	C192.935242,283.316559 192.395309,281.538757 192.026154,279.335114 
z"/>
<path fill="#FBAA74" opacity="1.000000" stroke="none" 
	d="
M294.214294,143.363052 
	C300.602173,143.048340 306.918640,143.048340 313.235077,143.048340 
	C313.485199,143.582916 313.735321,144.117493 313.985474,144.652069 
	C312.052338,145.765747 310.034607,147.931580 308.202942,147.784241 
	C303.755066,147.426437 299.393738,145.993195 294.643311,144.972641 
	C294.240326,144.527298 294.191620,144.102539 294.214294,143.363052 
z"/>
<path fill="#E5B492" opacity="1.000000" stroke="none" 
	d="
M161.855515,126.708244 
	C159.027832,129.177933 156.089615,131.448044 153.333984,133.577087 
	C149.953094,131.497726 146.672867,129.480255 143.158020,127.199684 
	C142.940033,126.508484 142.956635,126.080399 143.002365,125.332458 
	C143.031494,125.012604 143.526764,124.997223 144.092789,125.144989 
	C147.516815,126.707466 150.374817,128.122162 153.306946,129.573563 
	C155.431900,128.436340 157.711609,127.216309 159.991302,125.996277 
	C159.991302,125.996269 160.491119,126.001495 160.740967,126.002808 
	C161.285294,126.107925 161.536667,126.276115 161.855515,126.708244 
z"/>
<path fill="#574C47" opacity="1.000000" stroke="none" 
	d="
M343.401917,322.621368 
	C342.844238,320.940887 342.118622,318.814209 342.097992,316.680695 
	C342.046143,311.320404 342.312866,305.957031 342.739624,300.292725 
	C343.203247,307.384369 343.379089,314.778229 343.401917,322.621368 
z"/>
<path fill="#574C47" opacity="1.000000" stroke="none" 
	d="
M341.099640,286.102295 
	C341.537811,285.618011 342.297577,285.421783 343.368103,285.330536 
	C343.565460,289.381561 343.452026,293.327545 343.182220,297.640503 
	C342.490967,294.135071 341.956116,290.262695 341.099640,286.102295 
z"/>
<path fill="#FBB788" opacity="1.000000" stroke="none" 
	d="
M271.874023,252.393860 
	C272.060730,255.483383 271.939453,258.818359 271.631622,262.573303 
	C271.485382,259.541992 271.525665,256.090637 271.874023,252.393860 
z"/>
<path fill="#FDD690" opacity="1.000000" stroke="none" 
	d="
M293.783081,148.198456 
	C293.955414,148.659851 293.888245,149.297440 293.574707,149.999359 
	C293.400116,149.500671 293.471863,148.937653 293.783081,148.198456 
z"/>
<path fill="#FDD690" opacity="1.000000" stroke="none" 
	d="
M324.794434,153.711121 
	C324.484344,153.931259 324.072693,153.943848 323.388062,153.806152 
	C323.640991,153.605118 324.166931,153.554352 324.794434,153.711121 
z"/>
<path fill="#FCD790" opacity="1.000000" stroke="none" 
	d="
M284.912811,155.233826 
	C284.703156,155.580505 284.199493,155.834656 283.410309,156.028198 
	C283.622803,155.692154 284.120789,155.416718 284.912811,155.233826 
z"/>
<path fill="#CB2826" opacity="1.000000" stroke="none" 
	d="
M281.928528,99.691040 
	C281.979004,99.774109 282.005157,99.695274 282.029175,99.683281 
	C282.053192,99.671288 281.878082,99.607971 281.928528,99.691040 
z"/>
<path fill="#414566" opacity="1.000000" stroke="none" 
	d="
M194.209473,370.753723 
	C193.926666,370.829956 193.733353,370.669006 193.584564,370.474060 
	C193.557068,370.438049 193.709366,370.264771 193.958679,370.074524 
	C194.197220,370.164398 194.255783,370.334625 194.209473,370.753723 
z"/>
<path fill="#FBB788" opacity="1.000000" stroke="none" 
	d="
M271.139771,265.133179 
	C271.577759,265.199158 271.640289,265.464539 271.283997,265.911804 
	C270.905121,265.806030 270.871521,265.552338 271.139771,265.133179 
z"/>
<path fill="#626161" opacity="1.000000" stroke="none" 
	d="
M135.657227,137.213440 
	C142.362076,138.406219 148.693436,139.633270 155.526428,141.276566 
	C156.403824,143.470215 156.615952,145.302948 157.193588,147.012161 
	C158.067932,149.599411 157.254074,150.670792 154.587677,150.958542 
	C146.004593,151.884827 139.959045,157.127975 134.215027,162.804474 
	C135.326172,164.818985 136.607162,166.430038 137.158981,168.260880 
	C140.061935,177.892410 143.839737,187.422958 145.297409,197.286545 
	C147.152756,209.841003 147.943039,222.702972 147.616287,235.391785 
	C147.208191,251.240967 145.195984,267.048828 143.876312,282.874542 
	C142.223648,282.890900 140.570969,282.907257 138.509888,282.910278 
	C133.819855,281.646881 129.538239,280.396820 124.896553,279.140778 
	C120.368469,277.903320 119.607872,275.309998 120.804916,271.287354 
	C121.775650,268.025177 121.930321,264.520172 122.843689,260.540771 
	C125.006371,259.701630 126.765503,259.375854 128.539520,259.200378 
	C133.819443,258.678101 137.932632,254.838882 139.578690,248.576172 
	C140.936447,243.410431 137.576477,240.442810 133.926193,238.073441 
	C131.193054,236.299408 127.973251,235.275162 124.990166,233.458160 
	C124.882324,216.637421 123.793083,200.477402 115.938629,185.258240 
	C108.795006,192.782867 102.365608,199.555176 96.072151,206.184296 
	C103.186913,212.103546 110.217529,217.919800 117.208092,223.783783 
	C120.302429,226.379471 122.016479,229.648331 121.471970,234.147339 
	C118.404915,238.788345 115.532646,243.087463 112.660385,247.386597 
	C110.005310,249.167877 107.817490,249.023224 105.150352,246.817551 
	C93.233665,236.962601 81.159607,227.325195 71.928619,214.683105 
	C67.786285,209.010040 67.044907,203.579544 70.709595,197.165985 
	C79.839981,181.186996 90.553284,166.448654 103.786179,153.664505 
	C112.604179,145.145538 123.625839,140.500641 135.657227,137.213440 
z"/>
<path fill="#F5B589" opacity="1.000000" stroke="none" 
	d="
M112.949753,247.680634 
	C115.532646,243.087463 118.404915,238.788345 121.796570,234.181152 
	C123.200676,233.887741 124.085411,233.902390 124.970139,233.917053 
	C127.973251,235.275162 131.193054,236.299408 133.926193,238.073441 
	C137.576477,240.442810 140.936447,243.410431 139.578690,248.576172 
	C137.932632,254.838882 133.819443,258.678101 128.539520,259.200378 
	C126.765503,259.375854 125.006371,259.701630 122.916214,260.124573 
	C121.527657,259.562134 120.306267,258.983551 119.435860,258.070404 
	C118.135971,256.706665 116.936142,255.195969 115.964943,253.584351 
	C114.896271,251.810913 114.134552,249.852509 112.949753,247.680634 
z"/>
<path fill="#7A7878" opacity="1.000000" stroke="none" 
	d="
M123.697845,43.168159 
	C124.160110,43.595818 124.476837,44.234264 124.693840,45.245949 
	C124.246849,44.872444 123.899582,44.125694 123.697845,43.168159 
z"/>
<path fill="#626161" opacity="1.000000" stroke="none" 
	d="
M122.756729,297.227539 
	C123.035316,297.668640 123.106796,298.329315 122.945099,299.076416 
	C122.657822,298.590912 122.603722,298.019012 122.756729,297.227539 
z"/>
<path fill="#000000" opacity="1.000000" stroke="none" 
	d="
M323.978271,446.461395 
	C316.645630,447.001678 309.282990,447.095032 301.462860,447.132202 
	C301.662415,430.340851 302.319458,413.605713 303.308533,396.148315 
	C304.074432,388.970520 304.508392,382.514893 304.942352,376.059296 
	C304.942352,376.059296 305.047394,375.721100 305.297241,375.401306 
	C305.718140,374.765411 305.889191,374.449280 306.424988,374.033600 
	C310.188751,372.600983 313.587708,371.267944 316.986694,369.934906 
	C317.668152,377.460388 318.269165,384.994232 319.052460,392.509094 
	C319.937286,400.997711 321.146240,409.454681 321.920288,417.952209 
	C322.770874,427.290405 323.286621,436.659088 323.978271,446.461395 
z"/>
<path fill="#F1E7D6" opacity="1.000000" stroke="none" 
	d="
M316.961853,369.477417 
	C313.587708,371.267944 310.188751,372.600983 306.141296,373.992493 
	C305.305145,374.087036 305.117462,374.123108 304.929749,374.159149 
	C305.789215,358.435028 306.648682,342.710876 307.508148,326.986755 
	C307.598663,325.330505 307.394165,323.581177 307.877869,322.049042 
	C308.230988,320.930664 309.490479,320.098419 310.345947,319.138641 
	C311.197266,320.080292 312.659790,320.939972 312.798920,321.977173 
	C313.592255,327.891174 314.139496,333.841614 314.639587,339.790680 
	C315.458221,349.529297 316.176422,359.276398 316.961853,369.477417 
z"/>
<path fill="#B31616" opacity="1.000000" stroke="none" 
	d="
M273.775940,453.061157 
	C275.532990,452.247925 277.194733,451.540253 278.939148,450.512512 
	C283.733704,449.106262 288.445526,448.020081 293.658356,447.338684 
	C295.351318,448.184753 296.543335,448.626038 297.735321,449.067322 
	C297.735321,449.067322 297.894073,449.152069 298.087128,449.383331 
	C298.484528,449.830658 298.730591,449.976379 299.018372,450.051697 
	C299.001556,450.477997 298.984741,450.904297 298.708191,451.848328 
	C298.475311,452.926239 298.502228,453.486420 298.529175,454.046570 
	C298.492981,454.219055 298.456787,454.391571 298.055054,454.912476 
	C297.578400,455.597107 297.467285,455.933350 297.356140,456.269562 
	C297.356140,456.269562 297.412567,456.361755 297.067413,456.295929 
	C296.124023,456.755890 295.525757,457.281708 294.550232,457.867249 
	C292.447327,458.297180 290.721710,458.667389 288.844604,458.814545 
	C288.126160,458.768463 287.559204,458.945435 286.663818,459.127075 
	C285.897461,459.136017 285.459503,459.140259 284.832520,458.856384 
	C283.378387,458.090149 282.113312,457.612000 280.540619,457.090515 
	C279.825226,456.974243 279.417480,456.901306 278.912903,456.692139 
	C278.485046,456.362335 278.210846,456.435608 277.637634,456.873718 
	C276.133179,457.369904 274.984589,457.768127 273.883789,457.694885 
	C273.835205,455.965118 273.738800,454.706787 273.642395,453.448486 
	C273.642395,453.448486 273.680634,453.166656 273.775940,453.061157 
z"/>
<path fill="#5E5251" opacity="1.000000" stroke="none" 
	d="
M304.674561,376.342773 
	C304.508392,382.514893 304.074432,388.970520 303.317261,395.675507 
	C303.464935,389.492004 303.935852,383.059143 304.674561,376.342773 
z"/>
<path fill="#A5322E" opacity="1.000000" stroke="none" 
	d="
M297.612946,448.780548 
	C296.543335,448.626038 295.351318,448.184753 294.103699,447.408325 
	C295.195557,447.546692 296.343048,448.020233 297.612946,448.780548 
z"/>
<path fill="#5E5251" opacity="1.000000" stroke="none" 
	d="
M304.932373,374.464508 
	C305.117462,374.123108 305.305145,374.087036 305.776550,374.092072 
	C305.889191,374.449280 305.718140,374.765411 305.304504,375.224426 
	C305.019653,375.168152 304.977356,374.968994 304.932373,374.464508 
z"/>
<path fill="#A5322E" opacity="1.000000" stroke="none" 
	d="
M299.129761,449.889374 
	C298.730591,449.976379 298.484528,449.830658 298.149902,449.447815 
	C298.235138,449.256134 298.450714,449.231201 298.987457,449.272705 
	C299.308655,449.339172 299.241150,449.727051 299.129761,449.889374 
z"/>
<path fill="#000000" opacity="1.000000" stroke="none" 
	d="
M167.985779,443.009613 
	C161.324814,442.688629 154.665894,442.189545 148.002121,442.113159 
	C143.977615,442.067047 139.945557,442.677155 135.494705,442.899841 
	C135.410873,438.333313 135.440399,433.810028 136.145264,429.394531 
	C138.288559,415.968201 140.662781,402.578278 143.016907,389.186432 
	C143.583008,385.966064 144.419525,382.793243 145.376221,378.907410 
	C146.282913,378.087128 147.019547,377.701294 147.595688,377.868469 
	C153.407913,379.555267 159.193878,381.332642 164.950867,383.518433 
	C165.606796,389.984009 166.299057,396.015686 166.994781,402.512817 
	C167.327408,416.322083 167.656586,429.665863 167.985779,443.009613 
z"/>
<path fill="#343434" opacity="1.000000" stroke="none" 
	d="
M144.175995,283.168884 
	C145.195984,267.048828 147.208191,251.240967 147.616287,235.391785 
	C147.943039,222.702972 147.152756,209.841003 145.297409,197.286545 
	C143.839737,187.422958 140.061935,177.892410 137.158981,168.260880 
	C136.607162,166.430038 135.326172,164.818985 134.215027,162.804474 
	C139.959045,157.127975 146.004593,151.884827 154.587677,150.958542 
	C157.254074,150.670792 158.067932,149.599411 157.193588,147.012161 
	C156.615952,145.302948 156.403824,143.470215 155.962067,141.298615 
	C158.682983,140.324387 161.469910,139.744370 164.638474,139.141129 
	C166.870956,145.743973 168.721771,152.370041 170.851486,159.994583 
	C167.877060,159.994583 166.121078,159.949478 164.368240,160.004684 
	C161.385773,160.098572 158.313293,159.836227 155.441650,160.466400 
	C147.531219,162.202316 146.619003,163.961395 149.267700,171.358597 
	C154.402954,185.700211 156.883347,200.551666 156.945877,215.704559 
	C157.008850,230.968231 156.579590,246.246628 155.867340,261.495270 
	C155.529190,268.734558 154.030960,275.919708 153.054504,283.536255 
	C150.192398,283.783142 147.334030,283.623169 144.175995,283.168884 
z"/>
<path fill="#F3EBDB" opacity="1.000000" stroke="none" 
	d="
M164.987213,383.084534 
	C159.193878,381.332642 153.407913,379.555267 147.595688,377.868469 
	C147.019547,377.701294 146.282913,378.087128 145.415298,378.471008 
	C148.793182,356.208038 152.376556,333.690338 156.041550,310.659698 
	C158.547501,311.107544 160.266541,311.414764 162.273712,312.382385 
	C163.704086,336.028442 164.846329,359.014130 165.757965,382.114380 
	C165.347336,382.514130 165.167282,382.799347 164.987213,383.084534 
z"/>
<path fill="#202847" opacity="1.000000" stroke="none" 
	d="
M165.988556,381.999817 
	C164.846329,359.014130 163.704086,336.028442 162.590118,312.582672 
	C170.721527,310.167664 172.975555,311.823334 172.978088,319.722900 
	C172.990265,357.651276 172.976868,395.579742 173.055222,433.507965 
	C173.063965,437.738129 173.597458,441.967194 173.933563,446.551941 
	C172.703384,446.622192 171.427216,446.337280 169.835571,445.977600 
	C169.098206,445.137329 168.676300,444.371826 168.120087,443.307983 
	C167.656586,429.665863 167.327408,416.322083 166.991852,402.040009 
	C166.653183,394.734406 166.320877,388.367096 165.988556,381.999817 
z"/>
<path fill="#46372D" opacity="1.000000" stroke="none" 
	d="
M170.208313,459.340240 
	C171.686020,458.299103 173.248123,457.132050 174.858917,457.060486 
	C185.593735,456.583374 196.337799,456.288269 207.081421,456.049591 
	C210.817352,455.966583 214.560577,456.211304 218.670715,456.138306 
	C219.724792,457.125153 220.408646,458.280060 221.526382,460.167694 
	C218.412018,460.447418 216.311676,460.786194 214.209106,460.800446 
	C201.084641,460.889374 187.959488,460.945709 174.835083,460.891663 
	C173.326889,460.885437 171.821777,460.129456 170.208313,459.340240 
z"/>
<path fill="#483A30" opacity="1.000000" stroke="none" 
	d="
M105.778717,457.367493 
	C114.581184,456.958771 123.326241,456.977875 132.529999,456.999878 
	C133.656586,459.993591 132.553925,461.218689 129.409637,461.137268 
	C122.817513,460.966461 116.209694,461.218628 109.630768,460.871552 
	C108.277283,460.800140 107.021912,458.869141 105.778717,457.367493 
z"/>
<path fill="#A2695A" opacity="1.000000" stroke="none" 
	d="
M327.107727,458.253601 
	C330.138214,458.681641 333.124817,459.982361 336.163910,460.119507 
	C339.031586,460.248871 341.942535,459.075348 344.858368,458.632202 
	C346.220428,458.425201 347.645874,458.501831 349.029633,458.612183 
	C350.191345,458.704834 351.334259,459.032867 352.800476,459.129700 
	C352.183472,460.761444 351.569916,463.735565 350.266632,464.076996 
	C343.099213,465.954834 335.995667,465.003235 329.338959,461.703217 
	C328.327087,461.201599 327.824768,459.672150 327.107727,458.253601 
z"/>
<path fill="#A36A5D" opacity="1.000000" stroke="none" 
	d="
M279.009735,456.828339 
	C279.417480,456.901306 279.825226,456.974243 280.618042,457.413544 
	C282.342621,458.234772 283.682098,458.689636 285.021576,459.144531 
	C285.459503,459.140259 285.897461,459.136017 286.828094,459.318054 
	C287.879242,459.348724 288.437683,459.193146 288.996124,459.037598 
	C290.721710,458.667389 292.447327,458.297180 294.905701,457.929993 
	C296.116425,457.979797 296.594360,458.026642 297.072296,458.073456 
	C295.778381,459.401581 294.653717,461.612366 293.160004,461.898834 
	C287.840088,462.919098 282.406769,463.532196 276.991791,463.797546 
	C274.129272,463.937836 271.887451,462.353363 272.222839,458.514099 
	C272.965912,458.116608 273.400970,458.141510 273.835999,458.166382 
	C274.984589,457.768127 276.133179,457.369904 277.889465,456.927856 
	C278.667969,456.865479 278.838867,456.846924 279.009735,456.828339 
z"/>
<path fill="#A5322E" opacity="1.000000" stroke="none" 
	d="
M273.883789,457.694916 
	C273.400970,458.141510 272.965912,458.116608 272.203979,458.129089 
	C272.265625,456.685333 272.654144,455.204193 273.342529,453.585785 
	C273.738800,454.706787 273.835205,455.965118 273.883789,457.694916 
z"/>
<path fill="#A5322E" opacity="1.000000" stroke="none" 
	d="
M297.144897,457.806366 
	C296.594360,458.026642 296.116425,457.979797 295.283020,457.870239 
	C295.525757,457.281708 296.124023,456.755890 297.055054,456.348572 
	C297.331055,456.824463 297.274261,457.181854 297.144897,457.806366 
z"/>
<path fill="#A36A5D" opacity="1.000000" stroke="none" 
	d="
M298.684265,453.820190 
	C298.502228,453.486420 298.475311,452.926239 298.671051,452.166992 
	C298.875580,452.509827 298.857452,453.051819 298.684265,453.820190 
z"/>
<path fill="#A5322E" opacity="1.000000" stroke="none" 
	d="
M297.608276,456.163330 
	C297.467285,455.933350 297.578400,455.597107 297.950806,455.155518 
	C298.094879,455.385773 297.977600,455.721436 297.608276,456.163330 
z"/>
<path fill="#F0E8D8" opacity="1.000000" stroke="none" 
	d="
M201.737305,224.580414 
	C201.323807,224.956284 200.892151,224.899094 200.248871,224.830688 
	C200.037277,212.045563 200.037277,199.271667 200.037277,186.328384 
	C204.390503,189.038773 209.301804,192.096619 214.564011,195.372955 
	C211.586594,200.682434 208.352448,205.709717 205.885437,211.088821 
	C203.994659,215.211441 203.072220,219.778168 201.737305,224.580414 
z"/>
<path fill="#383838" opacity="1.000000" stroke="none" 
	d="
M172.666031,225.313232 
	C170.460907,226.150177 168.201279,227.375565 166.458054,226.858856 
	C165.273224,226.507660 164.131485,223.668106 164.244019,222.028732 
	C164.333099,220.731171 166.146469,218.962860 167.566757,218.463577 
	C170.936493,217.278976 172.992569,219.985306 172.666031,225.313232 
z"/>
<path fill="#383838" opacity="1.000000" stroke="none" 
	d="
M161.745026,276.115448 
	C160.339737,272.668701 160.954269,270.146057 164.367310,269.161041 
	C167.357483,268.298096 169.265671,270.062561 169.681519,272.809540 
	C169.884750,274.151978 168.986603,276.767059 168.190781,276.935638 
	C166.245026,277.347748 164.068649,276.670929 161.745026,276.115448 
z"/>
<path fill="#363636" opacity="1.000000" stroke="none" 
	d="
M165.275696,169.897781 
	C167.587067,172.866943 168.377029,175.883286 164.929031,177.681015 
	C162.444702,178.976318 159.638702,178.245361 158.511688,174.970261 
	C157.359451,171.621841 160.044357,169.420456 165.275696,169.897781 
z"/>
<path fill="#363636" opacity="1.000000" stroke="none" 
	d="
M169.278961,252.355072 
	C167.323395,251.580414 164.860321,250.978912 164.335449,249.625656 
	C163.842453,248.354645 164.938751,245.558762 166.180252,244.779816 
	C167.413361,244.006119 170.341675,244.219803 171.402115,245.207611 
	C174.552216,248.141998 172.243668,250.358551 169.278961,252.355072 
z"/>
<path fill="#363636" opacity="1.000000" stroke="none" 
	d="
M169.214767,193.777924 
	C172.644028,197.630783 172.553909,200.909073 169.083832,201.722824 
	C167.597855,202.071289 165.473679,201.401810 164.221222,200.438522 
	C163.398315,199.805618 162.941696,197.102798 163.498474,196.579361 
	C164.957962,195.207245 167.062820,194.521576 169.214767,193.777924 
z"/>
<path fill="#FA8630" opacity="1.000000" stroke="none" 
	d="
M295.160797,235.095886 
	C293.440125,235.396286 292.028473,235.512054 290.292969,235.692566 
	C288.594208,235.202286 287.231018,234.204361 285.842377,234.167557 
	C279.187622,233.991180 272.519775,233.897949 265.869019,234.130371 
	C261.647552,234.277893 259.318939,233.442139 260.798462,228.562363 
	C261.164612,227.354752 260.784607,225.920868 260.708008,223.896896 
	C261.047913,222.790314 261.427429,222.377823 262.115295,222.232269 
	C264.895325,222.641891 267.366974,222.784592 270.191040,223.082443 
	C273.832642,224.869385 276.112366,223.233215 278.386353,221.024399 
	C279.603210,219.842377 281.390106,218.132187 282.592224,218.363419 
	C283.795013,218.594772 284.589691,220.948090 285.975739,222.974258 
	C289.061951,222.974258 293.032745,222.974258 297.319702,222.938019 
	C298.091614,222.282059 298.547363,221.662369 299.013641,221.031326 
	C299.024170,221.019974 299.039001,220.992798 299.250732,220.879730 
	C299.720459,220.561142 299.906647,220.303680 300.329773,219.974579 
	C301.050598,219.937027 301.462708,219.919144 302.268433,219.942764 
	C306.108948,220.311569 309.555847,220.638855 313.153412,221.262253 
	C314.407867,221.677963 315.515625,221.769440 316.614349,221.924652 
	C317.845947,222.098633 319.081787,222.275909 320.293091,222.551514 
	C321.620087,222.853455 322.909729,223.530487 324.235596,223.588531 
	C329.005554,223.797424 333.784119,223.871780 338.558899,223.853271 
	C339.477783,223.849716 340.394165,223.197113 341.718994,222.880402 
	C344.412140,222.333755 346.697998,221.750641 349.281982,221.290375 
	C350.055664,222.609283 350.531219,223.805328 351.006775,225.001389 
	C350.973480,225.443207 350.940186,225.885025 350.688721,226.907349 
	C350.232727,229.920761 349.994873,232.353638 349.757019,234.786530 
	C346.484436,234.573990 343.211884,234.361450 339.080383,234.110138 
	C336.789703,234.126770 335.357880,234.182175 333.926086,234.237564 
	C330.903259,234.438187 327.880402,234.638809 324.166199,234.598892 
	C322.530823,234.265366 321.586823,234.172379 320.642792,234.079391 
	C317.741150,234.271942 314.839539,234.464508 311.596405,234.823807 
	C305.993195,234.964111 300.731506,234.937668 295.160797,235.095886 
z"/>
<path fill="#FBDDD8" opacity="1.000000" stroke="none" 
	d="
M301.839874,134.998016 
	C300.993408,133.428711 300.146942,131.859421 299.300507,130.290131 
	C300.779144,129.871780 302.237305,129.335678 303.743134,129.073792 
	C304.870178,128.877777 306.083740,128.884354 307.213684,129.072144 
	C308.734467,129.324890 310.211884,129.838684 311.707916,130.240448 
	C311.074707,131.660660 310.441528,133.080856 309.288879,134.441025 
	C306.459595,134.586655 304.149719,134.792328 301.839874,134.998016 
z"/>
<path fill="#511E16" opacity="1.000000" stroke="none" 
	d="
M301.871124,94.586441 
	C300.466278,94.681923 299.045959,94.762596 297.183655,94.827393 
	C300.025360,92.023018 303.488403,89.971046 308.140686,92.398300 
	C307.312897,93.031380 306.308746,93.344589 305.055969,93.964996 
	C304.440704,94.355667 304.074097,94.439140 303.287598,94.222015 
	C302.528778,94.144348 302.189758,94.367279 301.850769,94.590202 
	C301.850769,94.590202 301.855621,94.571617 301.871124,94.586441 
z"/>
<path fill="#C8635E" opacity="1.000000" stroke="none" 
	d="
M302.304688,135.007751 
	C304.149719,134.792328 306.459595,134.586655 309.047882,134.683960 
	C307.140717,134.997116 304.955109,135.007294 302.304688,135.007751 
z"/>
<path fill="#37241B" opacity="1.000000" stroke="none" 
	d="
M302.192322,94.609299 
	C302.189758,94.367279 302.528778,94.144348 303.013367,94.135925 
	C302.950592,94.443092 302.742218,94.535744 302.192322,94.609299 
z"/>
<path fill="#FBAA74" opacity="1.000000" stroke="none" 
	d="
M159.917862,125.631256 
	C157.711609,127.216309 155.431900,128.436340 153.306946,129.573563 
	C150.374817,128.122162 147.516815,126.707466 144.340485,125.139511 
	C144.093155,123.578278 144.164169,122.170311 144.249146,120.485435 
	C149.744354,122.170013 154.794388,123.718124 159.917862,125.631256 
z"/>
<path fill="#C8635E" opacity="1.000000" stroke="none" 
	d="
M168.181183,112.032974 
	C169.091690,111.293030 170.002213,110.553093 171.452393,109.374580 
	C172.250366,114.544601 169.434509,116.230072 166.239655,117.244156 
	C162.379013,118.469559 159.049225,117.558731 157.419006,113.351257 
	C161.427490,114.355453 165.001938,115.240250 168.181183,112.032974 
z"/>
<path fill="#FEE5E0" opacity="1.000000" stroke="none" 
	d="
M168.076553,111.673988 
	C165.001938,115.240250 161.427490,114.355453 157.410492,112.985649 
	C157.010056,112.936760 156.996750,112.995491 157.014771,112.748215 
	C157.002457,112.336075 156.972092,112.171227 156.941742,112.006386 
	C159.943085,108.618881 164.344482,108.343002 168.076553,111.673988 
z"/>
<path fill="#B16040" opacity="1.000000" stroke="none" 
	d="
M156.832214,97.849434 
	C153.062241,96.811256 152.436890,94.557884 153.970551,90.476082 
	C156.004715,91.621864 157.797363,92.631607 159.590012,93.641357 
	C158.795868,95.031738 158.001724,96.422119 156.832214,97.849434 
z"/>
<path fill="#AA593F" opacity="1.000000" stroke="none" 
	d="
M168.352295,94.101257 
	C170.055466,91.497169 172.019684,91.135559 173.538116,93.520927 
	C174.042206,94.312851 173.047836,96.058655 172.738525,97.368362 
	C171.248535,96.399139 169.758560,95.429924 168.352295,94.101257 
z"/>
<path fill="#F79777" opacity="1.000000" stroke="none" 
	d="
M162.252563,105.784958 
	C163.355621,104.339737 164.590057,103.259514 165.824493,102.179291 
	C166.463135,103.156670 167.101761,104.134048 167.740402,105.111427 
	C165.954910,105.457603 164.169434,105.803787 162.252563,105.784958 
z"/>
<path fill="#C8635E" opacity="1.000000" stroke="none" 
	d="
M156.766083,112.107056 
	C156.972092,112.171227 157.002457,112.336075 157.044647,112.752281 
	C156.901138,112.738327 156.745789,112.473022 156.766083,112.107056 
z"/>
<path fill="#FA8832" opacity="1.000000" stroke="none" 
	d="
M279.797180,171.018402 
	C282.372406,171.013840 284.458649,171.053818 286.914551,171.022156 
	C297.871826,170.975540 308.459381,171.000549 319.513550,170.991684 
	C322.201447,171.000153 324.422821,171.042496 327.128906,171.002258 
	C332.934662,170.984375 338.255463,171.075577 343.576630,171.107498 
	C351.464142,171.154816 351.485443,171.161606 350.138245,179.710693 
	C349.392548,180.043701 349.193695,180.059082 348.581726,180.051682 
	C346.106262,180.309402 344.043915,180.589920 341.610077,180.875000 
	C340.494934,180.889267 339.751312,180.898972 338.858643,180.695633 
	C338.136688,180.625519 337.563721,180.768448 336.525574,180.893738 
	C331.396149,180.843964 326.731934,180.811859 321.723663,180.542969 
	C301.953735,180.211655 282.527863,180.106125 263.101837,180.065338 
	C262.374115,180.063812 261.645081,180.691833 260.692719,181.010529 
	C260.468750,180.994598 260.022858,180.940811 260.022858,180.940811 
	C260.048828,178.269257 260.074799,175.597702 260.114746,172.482147 
	C266.521881,171.713089 272.915009,171.388016 279.797180,171.018402 
z"/>
<path fill="#D15211" opacity="1.000000" stroke="none" 
	d="
M341.981567,180.870422 
	C344.043915,180.589920 346.106262,180.309402 348.587494,180.406158 
	C349.032166,181.257980 349.057922,181.732559 349.083679,182.207123 
	C346.304413,188.775253 343.525116,195.343369 340.705383,202.292664 
	C340.664978,202.673828 340.654633,202.735245 340.430756,202.854279 
	C340.112640,203.286667 340.018372,203.600037 339.685974,204.174271 
	C337.317657,207.800095 338.057831,210.535736 340.973541,213.136780 
	C343.790192,215.649414 346.325134,218.477829 348.983826,221.167511 
	C346.697998,221.750641 344.412140,222.333755 341.668671,222.555618 
	C340.506287,221.164902 339.801514,220.135422 339.320312,218.873764 
	C338.595795,217.530365 337.861542,215.925049 336.658051,215.404266 
	C333.536346,214.053497 330.208099,213.180008 326.614197,212.030151 
	C325.158630,211.543747 324.051147,211.143204 323.078369,210.384338 
	C323.764557,209.714081 324.400482,209.038773 324.854980,209.144394 
	C332.432312,210.905060 334.642914,206.297821 336.175507,200.194489 
	C337.811798,193.678040 340.021942,187.305679 341.981567,180.870422 
z"/>
<path fill="#FCEAD0" opacity="1.000000" stroke="none" 
	d="
M349.281982,221.290375 
	C346.325134,218.477829 343.790192,215.649414 340.973541,213.136780 
	C338.057831,210.535736 337.317657,207.800095 339.930481,204.073486 
	C340.493652,203.386292 340.574158,203.060776 340.654633,202.735245 
	C340.654633,202.735245 340.664978,202.673828 340.679840,202.645920 
	C342.089600,203.372513 344.228180,203.787216 344.754272,204.938660 
	C347.434113,210.803818 351.850739,212.929688 358.436462,212.122162 
	C360.173340,214.963928 361.482727,217.761246 363.181335,221.389954 
	C359.350616,222.608246 355.584564,223.805984 351.412628,225.002563 
	C350.531219,223.805328 350.055664,222.609283 349.281982,221.290375 
z"/>
<path fill="#D35514" opacity="1.000000" stroke="none" 
	d="
M349.351746,182.021133 
	C349.057922,181.732559 349.032166,181.257980 349.000610,180.428940 
	C349.193695,180.059082 349.392548,180.043701 349.891418,180.021454 
	C350.000854,180.621445 349.810333,181.228302 349.351746,182.021133 
z"/>
<path fill="#FDAA6E" opacity="1.000000" stroke="none" 
	d="
M320.785034,234.390030 
	C321.586823,234.172379 322.530823,234.265366 323.735718,234.591644 
	C323.963776,235.072037 323.931000,235.319138 323.788574,235.926437 
	C322.761719,235.757996 321.844513,235.229324 320.785034,234.390030 
z"/>
<path fill="#FDAA6E" opacity="1.000000" stroke="none" 
	d="
M323.879913,236.449707 
	C324.098022,236.375122 324.411377,236.550095 324.799072,236.995178 
	C324.574005,237.076614 324.274597,236.887939 323.879913,236.449707 
z"/>
<path fill="#FCEACE" opacity="1.000000" stroke="none" 
	d="
M261.806946,221.965347 
	C261.427429,222.377823 261.047913,222.790314 260.558838,223.476410 
	C257.939667,223.272202 255.215424,223.197662 253.061661,222.051300 
	C252.475830,221.739456 253.452255,218.153061 254.012207,216.153717 
	C254.354828,214.930420 255.269684,213.867386 255.992630,212.384995 
	C259.907959,210.195145 265.476593,211.605392 267.315857,205.835434 
	C267.680969,204.689941 269.370178,203.966522 271.048492,203.228699 
	C274.574066,207.264435 274.136078,210.403305 270.212830,213.520035 
	C267.123932,215.973969 264.588318,219.124329 261.806946,221.965347 
z"/>
<path fill="#FDAA6E" opacity="1.000000" stroke="none" 
	d="
M350.120789,234.808624 
	C349.994873,232.353638 350.232727,229.920761 350.711090,227.240265 
	C351.922241,229.672455 354.607178,232.454407 350.120789,234.808624 
z"/>
<path fill="#FDAA6E" opacity="1.000000" stroke="none" 
	d="
M334.037079,234.560822 
	C335.357880,234.182175 336.789703,234.126770 338.646912,234.149063 
	C337.430908,234.445862 335.789490,234.664978 334.037079,234.560822 
z"/>
<path fill="#D35514" opacity="1.000000" stroke="none" 
	d="
M262.115295,222.232269 
	C264.588318,219.124329 267.123932,215.973969 270.212830,213.520035 
	C274.136078,210.403305 274.574066,207.264435 271.411804,203.163177 
	C268.345520,197.076782 265.515594,191.236160 262.400482,184.820831 
	C261.715729,183.172897 261.316223,182.099701 260.916687,181.026489 
	C261.645081,180.691833 262.374115,180.063812 263.101837,180.065338 
	C282.527863,180.106125 301.953735,180.211655 321.435028,180.866379 
	C319.698669,181.605301 317.907349,181.933609 316.115082,181.939056 
	C302.013885,181.981903 287.912476,181.962997 273.811157,181.963120 
	C272.073334,181.963135 270.335541,181.963120 267.770630,181.963120 
	C270.963043,190.402847 273.967438,197.841415 276.549866,205.423691 
	C277.566101,208.407410 279.240997,209.058441 282.056244,209.147110 
	C283.720917,209.199539 285.352051,210.317520 286.728699,211.208725 
	C281.982147,213.298309 277.505127,215.135498 272.853821,217.206635 
	C271.732574,219.269485 270.785583,221.098389 269.838623,222.927307 
	C267.366974,222.784592 264.895325,222.641891 262.115295,222.232269 
z"/>
<path fill="#FCD790" opacity="1.000000" stroke="none" 
	d="
M260.692719,181.010544 
	C261.316223,182.099701 261.715729,183.172897 262.150574,184.589417 
	C261.459656,183.861130 260.733429,182.789505 260.015045,181.329346 
	C260.022858,180.940811 260.468750,180.994598 260.692719,181.010544 
z"/>
<path fill="#511E16" opacity="1.000000" stroke="none" 
	d="
M312.852142,92.842117 
	C312.405548,93.146812 311.820282,93.237083 311.097595,93.091949 
	C311.544586,92.780266 312.129028,92.703979 312.852142,92.842117 
z"/>
<path fill="#511E16" opacity="1.000000" stroke="none" 
	d="
M320.794189,95.831558 
	C320.621155,95.954247 320.409180,95.831131 320.112976,95.514198 
	C320.299194,95.300072 320.541382,95.388535 320.794189,95.831558 
z"/>
<path fill="#F5ECDA" opacity="1.000000" stroke="none" 
	d="
M124.990166,233.458160 
	C124.085411,233.902390 123.200676,233.887741 121.991348,233.839279 
	C122.016479,229.648331 120.302429,226.379471 117.208092,223.783783 
	C110.217529,217.919800 103.186913,212.103546 96.072151,206.184296 
	C102.365608,199.555176 108.795006,192.782867 115.938629,185.258240 
	C123.793083,200.477402 124.882324,216.637421 124.990166,233.458160 
z"/>
<path fill="#A5322E" opacity="1.000000" stroke="none" 
	d="
M284.832520,458.856384 
	C283.682098,458.689636 282.342621,458.234772 280.925720,457.456909 
	C282.113312,457.612000 283.378387,458.090149 284.832520,458.856384 
z"/>
<path fill="#A5322E" opacity="1.000000" stroke="none" 
	d="
M288.844604,458.814545 
	C288.437683,459.193146 287.879242,459.348724 287.156525,459.313354 
	C287.559204,458.945435 288.126160,458.768463 288.844604,458.814545 
z"/>
<path fill="#A5322E" opacity="1.000000" stroke="none" 
	d="
M278.912903,456.692139 
	C278.838867,456.846924 278.667969,456.865479 278.245300,456.829895 
	C278.210846,456.435608 278.485046,456.362335 278.912903,456.692139 
z"/>
<path fill="#3F4356" opacity="1.000000" stroke="none" 
	d="
M165.757965,382.114380 
	C166.320877,388.367096 166.653183,394.734406 166.988403,401.574524 
	C166.299057,396.015686 165.606796,389.984009 164.950867,383.518433 
	C165.167282,382.799347 165.347336,382.514130 165.757965,382.114380 
z"/>
<path fill="#F5992F" opacity="1.000000" stroke="none" 
	d="
M339.096771,219.105957 
	C339.801514,220.135422 340.506287,221.164902 341.261353,222.519165 
	C340.394165,223.197113 339.477783,223.849716 338.558899,223.853271 
	C333.784119,223.871780 329.005554,223.797424 324.235596,223.588531 
	C322.909729,223.530487 321.620087,222.853455 320.293091,222.551514 
	C319.081787,222.275909 317.845947,222.098633 316.614349,221.924652 
	C315.515625,221.769440 314.407867,221.677963 313.249939,220.992584 
	C312.158844,219.438446 311.263733,218.201035 310.055695,217.513016 
	C307.461395,216.035431 307.280945,214.330185 309.410278,212.168335 
	C315.169617,212.510696 320.547607,212.824158 326.173615,213.381256 
	C330.646667,215.451904 334.871704,217.278931 339.096771,219.105957 
z"/>
<path fill="#F6A235" opacity="1.000000" stroke="none" 
	d="
M270.191040,223.082443 
	C270.785583,221.098389 271.732574,219.269485 273.243408,217.211029 
	C280.355927,215.642258 286.498566,213.384003 293.613556,213.497726 
	C299.995239,213.599731 299.510437,215.918015 299.009399,220.241974 
	C299.020691,220.659256 299.029846,220.826035 299.039001,220.992798 
	C299.039001,220.992798 299.024170,221.019974 298.696289,221.059174 
	C297.913422,221.723663 297.458466,222.348953 297.003510,222.974258 
	C293.032745,222.974258 289.061951,222.974258 285.975739,222.974258 
	C284.589691,220.948090 283.795013,218.594772 282.592224,218.363419 
	C281.390106,218.132187 279.603210,219.842377 278.386353,221.024399 
	C276.112366,223.233215 273.832642,224.869385 270.191040,223.082443 
z"/>
<path fill="#FAB865" opacity="1.000000" stroke="none" 
	d="
M299.007324,219.991455 
	C299.510437,215.918015 299.995239,213.599731 293.613556,213.497726 
	C286.498566,213.384003 280.355927,215.642258 273.417725,216.977081 
	C277.505127,215.135498 281.982147,213.298309 287.164978,211.213348 
	C297.868744,210.673660 307.866638,210.381729 318.010254,210.235565 
	C318.155975,210.381348 318.549377,210.492828 318.549377,210.492828 
	C318.549377,210.492828 318.917328,210.314713 319.307983,210.436722 
	C320.780304,210.620056 321.861969,210.681366 322.943665,210.742676 
	C324.051147,211.143204 325.158630,211.543747 326.485657,212.239288 
	C326.482849,212.783798 326.222992,212.984909 325.925629,213.137619 
	C320.547607,212.824158 315.169617,212.510696 308.988953,212.121490 
	C302.229431,212.163147 302.224731,212.169022 301.874786,219.901245 
	C301.462708,219.919144 301.050598,219.937027 300.076233,219.970932 
	C299.345062,219.988464 299.176178,219.989960 299.007324,219.991455 
z"/>
<path fill="#F3AA3C" opacity="1.000000" stroke="none" 
	d="
M302.268433,219.942764 
	C302.224731,212.169022 302.229431,212.163147 308.607605,212.092621 
	C307.280945,214.330185 307.461395,216.035431 310.055695,217.513016 
	C311.263733,218.201035 312.158844,219.438446 313.099243,220.696472 
	C309.555847,220.638855 306.108948,220.311569 302.268433,219.942764 
z"/>
<path fill="#F3AA3C" opacity="1.000000" stroke="none" 
	d="
M297.319702,222.938019 
	C297.458466,222.348953 297.913422,221.723663 298.685730,221.070526 
	C298.547363,221.662369 298.091614,222.282059 297.319702,222.938019 
z"/>
<path fill="#F3AA3C" opacity="1.000000" stroke="none" 
	d="
M299.009399,220.241974 
	C299.176178,219.989960 299.345062,219.988464 299.767487,219.990601 
	C299.906647,220.303680 299.720459,220.561142 299.250732,220.879730 
	C299.029846,220.826035 299.020691,220.659256 299.009399,220.241974 
z"/>
<path fill="#B82D02" opacity="1.000000" stroke="none" 
	d="
M323.078369,210.384338 
	C321.861969,210.681366 320.780304,210.620056 319.148926,210.347290 
	C318.359528,210.038177 318.114624,210.022827 317.864532,210.089798 
	C307.866638,210.381729 297.868744,210.673660 287.434570,210.960968 
	C285.352051,210.317520 283.720917,209.199539 282.056244,209.147110 
	C279.240997,209.058441 277.566101,208.407410 276.549866,205.423691 
	C273.967438,197.841415 270.963043,190.402847 267.770630,181.963120 
	C270.335541,181.963120 272.073334,181.963135 273.811157,181.963120 
	C287.912476,181.962997 302.013885,181.981903 316.115082,181.939056 
	C317.907349,181.933609 319.698669,181.605301 321.779053,181.103149 
	C326.731934,180.811859 331.396149,180.843964 336.658875,181.144562 
	C337.840759,181.244919 338.424225,181.076797 339.007660,180.908676 
	C339.751312,180.898972 340.494934,180.889267 341.610077,180.875000 
	C340.021942,187.305679 337.811798,193.678040 336.175507,200.194489 
	C334.642914,206.297821 332.432312,210.905060 324.854980,209.144394 
	C324.400482,209.038773 323.764557,209.714081 323.078369,210.384338 
z"/>
<path fill="#D35514" opacity="1.000000" stroke="none" 
	d="
M338.858643,180.695618 
	C338.424225,181.076797 337.840759,181.244919 337.124054,181.162216 
	C337.563721,180.768448 338.136688,180.625519 338.858643,180.695618 
z"/>
<path fill="#F8AF52" opacity="1.000000" stroke="none" 
	d="
M326.173615,213.381256 
	C326.222992,212.984909 326.482849,212.783798 326.833740,212.325165 
	C330.208099,213.180008 333.536346,214.053497 336.658051,215.404266 
	C337.861542,215.925049 338.595795,217.530365 339.320312,218.873779 
	C334.871704,217.278931 330.646667,215.451904 326.173615,213.381256 
z"/>
<path fill="#FDDA91" opacity="1.000000" stroke="none" 
	d="
M340.430756,202.854279 
	C340.574158,203.060776 340.493652,203.386292 340.168640,203.812622 
	C340.018372,203.600037 340.112640,203.286667 340.430756,202.854279 
z"/>
<path fill="#D15211" opacity="1.000000" stroke="none" 
	d="
M318.010254,210.235565 
	C318.114624,210.022827 318.359528,210.038177 318.758270,210.225281 
	C318.917328,210.314713 318.549377,210.492828 318.549377,210.492828 
	C318.549377,210.492828 318.155975,210.381348 318.010254,210.235565 
z"/>
</svg>