<svg version="1.1" id="Layer_1" xmlns="http://www.w3.org/2000/svg" xmlns:xlink="http://www.w3.org/1999/xlink" x="0px" y="0px"
	 width="100%" viewBox="0 0 305 255" enable-background="new 0 0 305 255" xml:space="preserve">
<path fill="#000000" opacity="1.000000" stroke="none" 
	d="
M215.000000,256.000000 
	C143.333359,256.000000 72.166710,256.000000 1.000048,256.000000 
	C1.000032,171.000046 1.000032,86.000092 1.000016,1.000105 
	C102.666588,1.000070 204.333176,1.000070 305.999817,1.000035 
	C305.999878,85.999901 305.999878,170.999802 305.999939,255.999847 
	C275.833344,256.000000 245.666672,256.000000 215.000000,256.000000 
M41.353367,124.521225 
	C41.907776,133.392181 42.462185,142.263138 43.041611,151.832779 
	C43.098045,152.528534 43.154484,153.224289 43.073250,154.666183 
	C43.396248,155.801163 43.719246,156.936142 44.069340,158.681290 
	C44.122410,159.083786 44.175476,159.486267 44.105785,160.537567 
	C44.414452,161.061462 44.723114,161.585373 45.078064,162.521042 
	C45.078064,162.521042 45.190979,162.919739 45.048996,163.607468 
	C45.357529,164.413712 45.666058,165.219940 46.066307,166.466019 
	C46.066307,166.466019 46.224014,166.886703 46.113266,167.536484 
	C46.418961,168.061264 46.724655,168.586029 47.082302,169.509720 
	C47.082302,169.509720 47.212189,169.890442 47.096645,170.539032 
	C47.410862,171.056580 47.725079,171.574127 48.109268,172.496429 
	C48.109268,172.496429 48.235981,172.887146 48.179104,173.438843 
	C48.450130,173.676224 48.721161,173.913620 49.042950,174.571564 
	C49.042950,174.571564 49.169331,174.975891 49.061275,175.607483 
	C49.374992,176.108902 49.688709,176.610321 50.065205,177.854568 
	C57.228439,195.040756 67.660522,209.704025 82.157928,221.643295 
	C110.537590,245.015213 142.626236,253.498718 178.737289,246.928925 
	C206.040298,241.961609 228.524658,228.160507 245.847565,207.060120 
	C266.932953,181.376709 275.394897,151.519791 271.015778,118.156860 
	C267.669159,92.660126 256.755127,70.957848 238.966324,52.841625 
	C227.105743,40.762772 213.148239,31.593719 197.056000,25.459208 
	C176.184448,17.502769 155.038208,16.308357 133.417740,20.518639 
	C120.415405,23.050659 108.310776,27.996603 97.033081,35.081280 
	C69.613358,52.306412 51.693802,76.384453 44.191845,107.951294 
	C42.938526,113.225029 42.799004,118.763443 41.353367,124.521225 
z"/>
<path fill="#09A19D" opacity="1.000000" stroke="none" 
	d="
M47.212189,169.890442 
	C47.212189,169.890442 47.082302,169.509720 47.019844,169.011871 
	C46.712929,167.971588 46.468472,167.429153 46.224014,166.886703 
	C46.224014,166.886703 46.066307,166.466019 46.010155,165.922043 
	C45.699661,164.558624 45.445320,163.739182 45.190979,162.919739 
	C45.190979,162.919739 45.078064,162.521042 45.022446,162.016495 
	C44.720734,160.970886 44.474636,160.429825 44.228539,159.888763 
	C44.175476,159.486267 44.122410,159.083786 44.208771,158.124237 
	C43.969105,156.351456 43.590012,155.135757 43.210922,153.920044 
	C43.154484,153.224289 43.098045,152.528534 43.205002,151.123047 
	C43.489838,148.472870 43.817997,146.519287 43.695438,144.594376 
	C43.261848,137.784119 42.674122,130.983704 42.144821,124.179558 
	C42.799004,118.763443 42.938526,113.225029 44.191845,107.951294 
	C51.693802,76.384453 69.613358,52.306412 97.033081,35.081280 
	C108.310776,27.996603 120.415405,23.050659 133.417740,20.518639 
	C155.038208,16.308357 176.184448,17.502769 197.056000,25.459208 
	C213.148239,31.593719 227.105743,40.762772 238.966324,52.841625 
	C256.755127,70.957848 267.669159,92.660126 271.015778,118.156860 
	C275.394897,151.519791 266.932953,181.376709 245.847565,207.060120 
	C228.524658,228.160507 206.040298,241.961609 178.737289,246.928925 
	C142.626236,253.498718 110.537590,245.015213 82.157928,221.643295 
	C67.660522,209.704025 57.228439,195.040756 49.977242,177.198898 
	C49.649292,176.020782 49.409313,175.498337 49.169331,174.975891 
	C49.169331,174.975891 49.042950,174.571564 48.932846,174.127686 
	C48.673279,173.384293 48.477688,173.118744 48.235981,172.887146 
	C48.235981,172.887146 48.109268,172.496429 48.032806,171.998535 
	C47.708298,170.963913 47.460243,170.427170 47.212189,169.890442 
M194.263840,141.617111 
	C156.151947,141.627670 118.040054,141.646255 79.928169,141.633667 
	C76.841240,141.632660 74.041946,141.185104 74.071434,145.979599 
	C74.098808,150.432098 76.323067,150.677139 79.722885,150.645447 
	C91.538094,150.535309 103.357269,150.740112 115.169960,150.536285 
	C118.909622,150.471756 120.137764,151.650406 120.016846,155.380905 
	C119.774361,162.862213 120.097656,170.361404 119.878281,177.844131 
	C119.768463,181.589996 120.712433,183.140366 124.853493,183.110001 
	C148.817627,182.934326 172.784195,182.957031 196.748749,183.105042 
	C200.482361,183.128098 201.693451,181.939987 201.627808,178.257980 
	C201.446869,168.109177 201.252350,157.940826 201.702957,147.808670 
	C201.938385,142.515060 200.051407,140.856003 194.263840,141.617111 
M130.592422,108.067703 
	C124.291641,115.471176 117.990868,122.874649 111.020599,131.064789 
	C144.787460,131.064789 177.239288,131.064789 210.817932,131.064789 
	C205.841644,125.196404 201.339310,120.318428 197.392227,115.026314 
	C195.743164,112.815331 194.540314,109.760025 194.407089,107.026588 
	C194.018402,99.052612 194.029556,91.037125 194.367081,83.058357 
	C194.557449,78.558441 192.972168,76.929604 188.649323,77.538582 
	C187.505554,77.699715 186.315323,77.653038 185.156952,77.564377 
	C182.221771,77.339699 180.916245,78.456398 181.077209,81.576088 
	C181.286575,85.634071 181.128387,89.711029 181.128387,93.779816 
	C180.642944,93.969475 180.157501,94.159134 179.672058,94.348793 
	C173.589111,87.289467 167.506149,80.230133 160.944855,72.615685 
	C150.670242,84.600815 140.850723,96.055107 130.592422,108.067703 
z"/>
<path fill="#249489" opacity="1.000000" stroke="none" 
	d="
M41.749092,124.350388 
	C42.674122,130.983704 43.261848,137.784119 43.695438,144.594376 
	C43.817997,146.519287 43.489838,148.472870 43.192497,150.773712 
	C42.462185,142.263138 41.907776,133.392181 41.749092,124.350388 
z"/>
<path fill="#249489" opacity="1.000000" stroke="none" 
	d="
M43.142086,154.293121 
	C43.590012,155.135757 43.969105,156.351456 44.195221,157.819153 
	C43.719246,156.936142 43.396248,155.801163 43.142086,154.293121 
z"/>
<path fill="#249489" opacity="1.000000" stroke="none" 
	d="
M45.119987,163.263611 
	C45.445320,163.739182 45.699661,164.558624 45.964294,165.702118 
	C45.666058,165.219940 45.357529,164.413712 45.119987,163.263611 
z"/>
<path fill="#249489" opacity="1.000000" stroke="none" 
	d="
M44.167160,160.213165 
	C44.474636,160.429825 44.720734,160.970886 44.999306,161.810608 
	C44.723114,161.585373 44.414452,161.061462 44.167160,160.213165 
z"/>
<path fill="#249489" opacity="1.000000" stroke="none" 
	d="
M46.168640,167.211594 
	C46.468472,167.429153 46.712929,167.971588 46.993874,168.812424 
	C46.724655,168.586029 46.418961,168.061264 46.168640,167.211594 
z"/>
<path fill="#249489" opacity="1.000000" stroke="none" 
	d="
M47.154419,170.214737 
	C47.460243,170.427170 47.708298,170.963913 47.997822,171.796158 
	C47.725079,171.574127 47.410862,171.056580 47.154419,170.214737 
z"/>
<path fill="#249489" opacity="1.000000" stroke="none" 
	d="
M49.115303,175.291687 
	C49.409313,175.498337 49.649292,176.020782 49.945854,176.827484 
	C49.688709,176.610321 49.374992,176.108902 49.115303,175.291687 
z"/>
<path fill="#249489" opacity="1.000000" stroke="none" 
	d="
M48.207542,173.162994 
	C48.477688,173.118744 48.673279,173.384293 48.907467,173.917419 
	C48.721161,173.913620 48.450130,173.676224 48.207542,173.162994 
z"/>
<path fill="#EAFAFA" opacity="1.000000" stroke="none" 
	d="
M194.726685,141.613251 
	C200.051407,140.856003 201.938385,142.515060 201.702957,147.808670 
	C201.252350,157.940826 201.446869,168.109177 201.627808,178.257980 
	C201.693451,181.939987 200.482361,183.128098 196.748749,183.105042 
	C172.784195,182.957031 148.817627,182.934326 124.853493,183.110001 
	C120.712433,183.140366 119.768463,181.589996 119.878281,177.844131 
	C120.097656,170.361404 119.774361,162.862213 120.016846,155.380905 
	C120.137764,151.650406 118.909622,150.471756 115.169960,150.536285 
	C103.357269,150.740112 91.538094,150.535309 79.722885,150.645447 
	C76.323067,150.677139 74.098808,150.432098 74.071434,145.979599 
	C74.041946,141.185104 76.841240,141.632660 79.928169,141.633667 
	C118.040054,141.646255 156.151947,141.627670 194.726685,141.613251 
M158.500214,150.614151 
	C150.023773,150.620148 141.546219,150.706833 133.071518,150.588501 
	C130.091904,150.546906 128.896194,151.576599 129.001038,154.628540 
	C129.177811,159.775070 129.140305,164.933151 129.038467,170.083313 
	C128.985214,172.776215 129.897141,173.970932 132.764404,173.959106 
	C151.378983,173.882217 169.994171,173.886154 188.608795,173.957550 
	C191.410294,173.968277 192.518723,172.836319 192.487747,170.125381 
	C192.430786,165.139984 192.329010,160.146667 192.543503,155.169479 
	C192.693649,151.685532 191.375885,150.500366 187.920181,150.560913 
	C178.449463,150.726807 168.973892,150.615601 158.500214,150.614151 
z"/>
<path fill="#ECFBFA" opacity="1.000000" stroke="none" 
	d="
M130.811798,107.788551 
	C140.850723,96.055107 150.670242,84.600815 160.944855,72.615685 
	C167.506149,80.230133 173.589111,87.289467 179.672058,94.348793 
	C180.157501,94.159134 180.642944,93.969475 181.128387,93.779816 
	C181.128387,89.711029 181.286575,85.634071 181.077209,81.576088 
	C180.916245,78.456398 182.221771,77.339699 185.156952,77.564377 
	C186.315323,77.653038 187.505554,77.699715 188.649323,77.538582 
	C192.972168,76.929604 194.557449,78.558441 194.367081,83.058357 
	C194.029556,91.037125 194.018402,99.052612 194.407089,107.026588 
	C194.540314,109.760025 195.743164,112.815331 197.392227,115.026314 
	C201.339310,120.318428 205.841644,125.196404 210.817932,131.064789 
	C177.239288,131.064789 144.787460,131.064789 111.020599,131.064789 
	C117.990868,122.874649 124.291641,115.471176 130.811798,107.788551 
M154.499847,122.455925 
	C166.354828,122.455925 178.209808,122.455925 190.064789,122.455925 
	C190.233856,122.010994 190.402924,121.566055 190.572006,121.121124 
	C180.843140,109.720009 171.114273,98.318893 160.937149,86.392456 
	C150.684372,98.390930 140.953171,109.779007 131.221970,121.167091 
	C131.419281,121.596748 131.616577,122.026398 131.813889,122.456047 
	C139.042557,122.456047 146.271210,122.456047 154.499847,122.455925 
z"/>
<path fill="#0FA29E" opacity="1.000000" stroke="none" 
	d="
M159.000229,150.614105 
	C168.973892,150.615601 178.449463,150.726807 187.920181,150.560913 
	C191.375885,150.500366 192.693649,151.685532 192.543503,155.169479 
	C192.329010,160.146667 192.430786,165.139984 192.487747,170.125381 
	C192.518723,172.836319 191.410294,173.968277 188.608795,173.957550 
	C169.994171,173.886154 151.378983,173.882217 132.764404,173.959106 
	C129.897141,173.970932 128.985214,172.776215 129.038467,170.083313 
	C129.140305,164.933151 129.177811,159.775070 129.001038,154.628540 
	C128.896194,151.576599 130.091904,150.546906 133.071518,150.588501 
	C141.546219,150.706833 150.023773,150.620148 159.000229,150.614105 
z"/>
<path fill="#11A39E" opacity="1.000000" stroke="none" 
	d="
M153.999863,122.455986 
	C146.271210,122.456047 139.042557,122.456047 131.813889,122.456047 
	C131.616577,122.026398 131.419281,121.596748 131.221970,121.167091 
	C140.953171,109.779007 150.684372,98.390930 160.937149,86.392456 
	C171.114273,98.318893 180.843140,109.720009 190.572006,121.121124 
	C190.402924,121.566055 190.233856,122.010994 190.064789,122.455925 
	C178.209808,122.455925 166.354828,122.455925 153.999863,122.455986 
z"/>
</svg>