<svg version="1.1" id="Layer_1" xmlns="http://www.w3.org/2000/svg" xmlns:xlink="http://www.w3.org/1999/xlink" x="0px" y="0px"
	 width="100%" viewBox="0 0 157 133" enable-background="new 0 0 157 133" xml:space="preserve">
<path fill="#000000" opacity="1.000000" stroke="none" 
	d="
M109.000000,134.000000 
	C72.666672,134.000000 36.833344,134.000000 1.000010,134.000000 
	C1.000006,89.666679 1.000006,45.333351 1.000003,1.000021 
	C53.333317,1.000014 105.666634,1.000014 157.999969,1.000007 
	C157.999969,45.333313 157.999969,89.666626 157.999985,133.999969 
	C141.833328,134.000000 125.666664,134.000000 109.000000,134.000000 
M120.680382,82.807610 
	C120.790215,78.171532 121.382568,73.487282 120.925415,68.907799 
	C119.058746,50.208824 102.307449,35.633633 83.317612,35.967812 
	C77.461235,36.070869 75.655571,38.883625 77.701843,44.318909 
	C77.954086,44.988926 77.193283,46.040337 76.273849,47.200596 
	C75.667450,47.752735 75.133125,48.424805 74.443848,48.839043 
	C63.905888,55.172100 54.584805,63.038734 47.050297,72.672089 
	C41.267372,80.065933 38.052017,88.921249 36.002415,98.117226 
	C35.207413,101.684166 33.297527,105.460999 38.167732,108.108894 
	C38.762402,107.591560 39.309135,106.986214 39.971386,106.560577 
	C44.748890,103.489952 46.679924,104.457527 47.008389,110.054192 
	C47.047276,110.716743 46.779961,111.690102 47.120525,111.989670 
	C48.367397,113.086418 49.811260,113.959221 51.180943,114.916351 
	C51.911251,113.222015 53.021748,111.575981 53.245235,109.817245 
	C53.408566,108.531921 52.562378,107.015076 51.892181,105.746155 
	C49.762619,101.714134 50.984764,99.162987 55.212341,97.956764 
	C58.668468,96.970650 62.172947,96.153984 64.236092,95.625740 
	C66.460754,98.925453 67.757927,101.948036 70.036232,103.679901 
	C70.928658,104.358276 74.021347,102.142136 76.149185,101.228264 
	C72.306580,93.430557 73.163841,92.187698 80.615593,91.895271 
	C83.747139,91.772392 86.835915,90.559715 90.881104,89.998291 
	C97.453751,90.079361 104.099205,89.583916 110.578728,90.402321 
	C117.166451,91.234375 119.586021,89.957031 120.680382,82.807610 
M48.325562,30.851271 
	C49.091690,32.419048 49.857815,33.986824 50.623940,35.554600 
	C51.187958,35.044914 51.751972,34.535229 52.315987,34.025547 
	C53.515339,32.957508 54.714687,31.889473 56.105747,30.650721 
	C57.710609,32.660084 59.093426,34.391438 60.683910,36.382801 
	C62.653656,35.067467 64.370804,33.920811 66.781815,32.310818 
	C58.202923,29.540621 61.926743,25.400183 65.563683,21.628016 
	C61.222942,18.600992 57.348957,17.936211 53.371193,19.936974 
	C49.295967,21.986763 47.889107,25.700533 48.325562,30.851271 
M140.938232,60.456944 
	C140.222000,60.084892 139.538803,59.496616 138.783371,59.381237 
	C136.495041,59.031738 134.178757,58.865444 131.873352,58.627773 
	C132.031754,60.610722 132.190155,62.593670 132.348846,64.580200 
	C131.295563,65.498032 130.007004,66.620895 128.801224,67.671616 
	C130.283691,69.595741 131.453857,71.114525 132.875900,72.960228 
	C134.404663,70.823463 135.327148,69.534103 136.246994,68.248413 
	C137.922119,69.238007 139.539444,70.193459 141.152176,71.146187 
	C145.716232,67.715622 144.319580,64.374420 140.938232,60.456944 
M119.728485,36.063923 
	C116.695747,36.745811 116.380219,39.235622 117.185768,41.305496 
	C117.851913,43.017166 119.614532,44.948769 121.277687,45.420387 
	C122.599258,45.795139 124.811340,44.423229 126.039597,43.224064 
	C126.808113,42.473755 127.114380,39.877651 126.534401,39.377186 
	C124.832130,37.908264 122.583000,37.073071 119.728485,36.063923 
M23.278797,78.739571 
	C23.864796,79.318207 24.412964,79.942238 25.043325,80.467644 
	C27.795969,82.761978 30.099302,81.742195 32.090893,79.362923 
	C34.319038,76.701027 32.708813,74.585938 30.564943,73.252754 
	C29.064594,72.319756 26.118216,71.445358 25.303982,72.183762 
	C23.932539,73.427475 23.741396,75.972702 23.278797,78.739571 
M45.570747,123.017090 
	C51.014908,124.545296 56.386215,124.411217 61.715336,123.314606 
	C61.712292,122.641090 61.709251,121.967583 61.706207,121.294067 
	C55.934280,121.294067 50.162357,121.294067 44.390430,121.294067 
	C44.487568,121.836899 44.584705,122.379723 45.570747,123.017090 
M30.981045,53.652523 
	C30.198042,52.859886 29.415039,52.067253 28.632038,51.274616 
	C28.281385,51.869774 27.930733,52.464928 27.580080,53.060085 
	C28.692904,53.519188 29.805729,53.978291 30.981045,53.652523 
M29.397287,55.975929 
	C29.053719,56.235737 28.710148,56.495541 28.366579,56.755348 
	C28.888000,56.672203 29.409424,56.589058 29.397287,55.975929 
z"/>
<path fill="#FBC618" opacity="1.000000" stroke="none" 
	d="
M89.944130,89.842461 
	C86.835915,90.559715 83.747139,91.772392 80.615593,91.895271 
	C73.163841,92.187698 72.306580,93.430557 76.149185,101.228264 
	C74.021347,102.142136 70.928658,104.358276 70.036232,103.679901 
	C67.757927,101.948036 66.460754,98.925453 64.236092,95.625740 
	C62.172947,96.153984 58.668468,96.970650 55.212341,97.956764 
	C50.984764,99.162987 49.762619,101.714134 51.892181,105.746155 
	C52.562378,107.015076 53.408566,108.531921 53.245235,109.817245 
	C53.021748,111.575981 51.911251,113.222015 51.180943,114.916351 
	C49.811260,113.959221 48.367397,113.086418 47.120525,111.989670 
	C46.779961,111.690102 47.047276,110.716743 47.008389,110.054192 
	C46.679924,104.457527 44.748890,103.489952 39.971386,106.560577 
	C39.309135,106.986214 38.762402,107.591560 38.167732,108.108894 
	C33.297527,105.460999 35.207413,101.684166 36.002415,98.117226 
	C38.052017,88.921249 41.267372,80.065933 47.050297,72.672089 
	C54.584805,63.038734 63.905888,55.172100 74.443848,48.839043 
	C75.133125,48.424805 75.667450,47.752735 76.893906,47.047791 
	C78.047684,46.624672 78.581406,46.354355 79.474838,46.080711 
	C81.263969,46.329845 82.693390,46.582314 84.524658,46.855713 
	C86.266144,46.948257 87.605774,47.019871 89.038849,47.384689 
	C89.792213,48.072407 90.452141,48.466919 91.453690,48.945461 
	C98.607582,51.469433 102.875031,56.673851 104.601006,63.232121 
	C106.006966,68.574417 105.620628,74.388405 105.867767,80.344559 
	C105.333099,85.520157 103.024811,87.467247 97.938637,87.185768 
	C95.330803,87.041443 92.612511,88.892937 89.944130,89.842461 
M87.995850,82.996506 
	C87.995850,82.996506 87.940063,82.968147 88.364609,82.711105 
	C88.627808,82.497810 88.823349,82.234299 88.968872,81.987938 
	C88.968872,81.987938 88.901779,81.969299 89.393234,81.477310 
	C89.256012,79.992363 89.118790,78.507416 88.993927,77.004158 
	C88.993927,77.004158 88.972069,77.006126 88.870529,76.387245 
	C88.441139,75.962563 88.011749,75.537880 87.293594,75.138763 
	C87.293594,75.138763 87.019051,75.045685 86.727333,74.678612 
	C86.179626,74.688629 85.631920,74.698647 84.385620,74.800896 
	C83.917328,74.835358 83.449028,74.869812 82.517731,74.568863 
	C81.715134,75.413383 80.912529,76.257912 80.040733,77.052704 
	C80.040733,77.052704 80.125542,77.044380 79.635330,77.481964 
	C79.770470,78.650780 79.905602,79.819588 79.997635,80.998665 
	C79.997635,80.998665 80.028549,80.966766 80.115746,81.575806 
	C80.502335,82.025284 80.888916,82.474762 81.732971,83.117325 
	C82.150246,83.385506 82.567520,83.653687 83.453705,84.391304 
	C84.615715,84.212669 85.777725,84.034027 86.980553,83.914574 
	C86.980553,83.914574 86.910080,83.928825 87.343132,83.692162 
	C87.617294,83.495934 87.825943,83.245193 87.995850,82.996506 
M64.294449,82.445869 
	C64.529427,82.687065 64.806770,82.860573 65.604675,83.022667 
	C65.604675,83.022667 66.066216,83.159859 66.570030,83.546432 
	C67.697372,83.288330 68.824722,83.030228 70.212410,82.335136 
	C70.689125,81.856361 71.165833,81.377586 72.299309,80.670494 
	C74.620705,78.052193 73.773369,76.279572 70.321335,74.857552 
	C69.878250,74.567741 69.435165,74.277939 68.507217,73.545540 
	C67.349907,73.758209 66.192596,73.970879 64.749886,74.636063 
	C64.210258,75.096489 63.670620,75.556915 62.622734,76.502182 
	C62.756916,77.998901 62.891102,79.495621 62.998871,81.002594 
	C62.998871,81.002594 63.012180,80.977844 63.245842,81.386505 
	C63.434807,81.642845 63.667492,81.850098 64.002441,81.997643 
	C64.002441,81.997643 63.992508,82.056305 64.294449,82.445869 
M44.693596,89.741013 
	C49.163769,91.227165 52.488541,89.585144 51.846054,85.974007 
	C51.574471,84.447563 50.213932,82.585434 48.848915,81.951782 
	C47.772015,81.451881 44.999924,82.206474 44.624271,83.097115 
	C43.864769,84.897835 44.221451,87.169350 44.693596,89.741013 
M81.771332,59.338482 
	C82.758888,57.283504 84.247520,55.286427 84.494850,53.145916 
	C84.598160,52.251797 82.180595,50.400276 80.702332,50.134422 
	C77.999527,49.648335 74.968208,50.298565 74.893555,53.822769 
	C74.812134,57.666512 77.043053,59.853428 81.771332,59.338482 
M74.052704,67.829208 
	C74.011345,66.364502 74.329933,63.767899 73.869362,63.621437 
	C71.171539,62.763508 68.113617,61.880127 66.026833,66.461281 
	C66.786804,66.939323 67.875084,67.398582 68.644432,68.174202 
	C69.347000,68.882492 69.704224,69.933342 70.541092,71.411644 
	C71.760521,70.006081 72.588951,69.051201 74.052704,67.829208 
M92.430740,60.902569 
	C90.896217,59.609558 89.361702,58.316544 86.951927,56.286022 
	C86.764381,59.233303 86.658890,60.891171 86.482498,63.663128 
	C88.967102,62.781563 90.674164,62.175877 92.430740,60.902569 
M94.625435,76.489037 
	C94.016823,77.079124 93.408211,77.669205 92.799599,78.259285 
	C93.369987,78.445107 93.940369,78.630920 94.510757,78.816734 
	C94.739159,78.087715 94.967560,77.358696 94.625435,76.489037 
M84.288170,71.607025 
	C84.872307,71.910835 85.456451,72.214638 86.040588,72.518448 
	C86.129120,72.097481 86.217644,71.676521 86.306168,71.255554 
	C85.668877,71.186028 85.031593,71.116508 84.288170,71.607025 
M97.772743,78.680252 
	C97.761993,79.224083 97.749374,79.767952 97.760925,80.311310 
	C97.761078,80.318420 98.068359,80.319000 98.232285,80.322624 
	C98.241386,79.779137 98.250488,79.235657 97.772743,78.680252 
z"/>
<path fill="#EDBF51" opacity="1.000000" stroke="none" 
	d="
M79.115128,46.084038 
	C78.581406,46.354355 78.047684,46.624672 77.207947,46.904999 
	C77.193283,46.040337 77.954086,44.988926 77.701843,44.318909 
	C75.655571,38.883625 77.461235,36.070869 83.317612,35.967812 
	C102.307449,35.633633 119.058746,50.208824 120.925415,68.907799 
	C121.382568,73.487282 120.790215,78.171532 119.956390,82.973862 
	C114.831284,82.091148 110.430153,81.042191 106.029030,79.993233 
	C105.620628,74.388405 106.006966,68.574417 104.601006,63.232121 
	C102.875031,56.673851 98.607582,51.469433 91.346207,48.662468 
	C90.246544,47.894127 89.595970,47.492802 88.945404,47.091484 
	C87.605774,47.019871 86.266144,46.948257 84.381149,46.551170 
	C82.262230,46.178482 80.688675,46.131260 79.115128,46.084038 
z"/>
<path fill="#F3C683" opacity="1.000000" stroke="none" 
	d="
M48.178215,30.475971 
	C47.889107,25.700533 49.295967,21.986763 53.371193,19.936974 
	C57.348957,17.936211 61.222942,18.600992 65.563683,21.628016 
	C61.926743,25.400183 58.202923,29.540621 66.781815,32.310818 
	C64.370804,33.920811 62.653656,35.067467 60.683910,36.382801 
	C59.093426,34.391438 57.710609,32.660084 56.105747,30.650721 
	C54.714687,31.889473 53.515339,32.957508 52.315987,34.025547 
	C51.751972,34.535229 51.187958,35.044914 50.623940,35.554600 
	C49.857815,33.986824 49.091690,32.419048 48.178215,30.475971 
z"/>
<path fill="#ECAA3A" opacity="1.000000" stroke="none" 
	d="
M105.867767,80.344559 
	C110.430153,81.042191 114.831284,82.091148 119.606148,83.218170 
	C119.586021,89.957031 117.166451,91.234375 110.578728,90.402321 
	C104.099205,89.583916 97.453751,90.079361 90.412613,89.920380 
	C92.612511,88.892937 95.330803,87.041443 97.938637,87.185768 
	C103.024811,87.467247 105.333099,85.520157 105.867767,80.344559 
z"/>
<path fill="#F0C889" opacity="1.000000" stroke="none" 
	d="
M141.221344,60.729424 
	C144.319580,64.374420 145.716232,67.715622 141.152176,71.146187 
	C139.539444,70.193459 137.922119,69.238007 136.246994,68.248413 
	C135.327148,69.534103 134.404663,70.823463 132.875900,72.960228 
	C131.453857,71.114525 130.283691,69.595741 128.801224,67.671616 
	C130.007004,66.620895 131.295563,65.498032 132.348846,64.580200 
	C132.190155,62.593670 132.031754,60.610722 131.873352,58.627773 
	C134.178757,58.865444 136.495041,59.031738 138.783371,59.381237 
	C139.538803,59.496616 140.222000,60.084892 141.221344,60.729424 
z"/>
<path fill="#DC9589" opacity="1.000000" stroke="none" 
	d="
M120.138260,36.026802 
	C122.583000,37.073071 124.832130,37.908264 126.534401,39.377186 
	C127.114380,39.877651 126.808113,42.473755 126.039597,43.224064 
	C124.811340,44.423229 122.599258,45.795139 121.277687,45.420387 
	C119.614532,44.948769 117.851913,43.017166 117.185768,41.305496 
	C116.380219,39.235622 116.695747,36.745811 120.138260,36.026802 
z"/>
<path fill="#DC968A" opacity="1.000000" stroke="none" 
	d="
M23.166302,78.355034 
	C23.741396,75.972702 23.932539,73.427475 25.303982,72.183762 
	C26.118216,71.445358 29.064594,72.319756 30.564943,73.252754 
	C32.708813,74.585938 34.319038,76.701027 32.090893,79.362923 
	C30.099302,81.742195 27.795969,82.761978 25.043325,80.467644 
	C24.412964,79.942238 23.864796,79.318207 23.166302,78.355034 
z"/>
<path fill="#F2C949" opacity="1.000000" stroke="none" 
	d="
M45.126297,122.969818 
	C44.584705,122.379723 44.487568,121.836899 44.390430,121.294067 
	C50.162357,121.294067 55.934280,121.294067 61.706207,121.294067 
	C61.709251,121.967583 61.712292,122.641090 61.715336,123.314606 
	C56.386215,124.411217 51.014908,124.545296 45.126297,122.969818 
z"/>
<path fill="#EAC681" opacity="1.000000" stroke="none" 
	d="
M30.949799,54.044960 
	C29.805729,53.978291 28.692904,53.519188 27.580080,53.060085 
	C27.930733,52.464928 28.281385,51.869774 28.632038,51.274616 
	C29.415039,52.067253 30.198042,52.859886 30.949799,54.044960 
z"/>
<path fill="#EAC681" opacity="1.000000" stroke="none" 
	d="
M29.664066,56.240921 
	C29.409424,56.589058 28.888000,56.672203 28.366579,56.755348 
	C28.710148,56.495541 29.053719,56.235737 29.664066,56.240921 
z"/>
<path fill="#D2531F" opacity="1.000000" stroke="none" 
	d="
M44.405720,89.493866 
	C44.221451,87.169350 43.864769,84.897835 44.624271,83.097115 
	C44.999924,82.206474 47.772015,81.451881 48.848915,81.951782 
	C50.213932,82.585434 51.574471,84.447563 51.846054,85.974007 
	C52.488541,89.585144 49.163769,91.227165 44.405720,89.493866 
z"/>
<path fill="#D2541E" opacity="1.000000" stroke="none" 
	d="
M82.984802,83.921860 
	C82.567520,83.653687 82.150246,83.385506 81.405357,82.740112 
	C80.728012,81.897530 80.378281,81.432144 80.028549,80.966766 
	C80.028549,80.966766 79.997635,80.998665 80.027641,80.599319 
	C80.080276,79.148102 80.102913,78.096245 80.125542,77.044380 
	C80.125542,77.044380 80.040733,77.052704 80.336746,76.928055 
	C81.415413,76.170357 82.198074,75.537315 82.980736,74.904274 
	C83.449028,74.869812 83.917328,74.835358 85.048416,74.852989 
	C86.147156,74.951950 86.583099,74.998817 87.019051,75.045685 
	C87.019051,75.045685 87.293594,75.138763 87.558487,75.403046 
	C88.206276,76.113586 88.589172,76.559860 88.972069,77.006126 
	C88.972069,77.006126 88.993927,77.004158 88.989685,77.424988 
	C88.957550,79.220314 88.929665,80.594803 88.901779,81.969299 
	C88.901779,81.969299 88.968872,81.987938 88.734726,82.066833 
	C88.313744,82.419861 88.126907,82.694008 87.940063,82.968147 
	C87.940063,82.968147 87.995850,82.996506 87.753876,83.073555 
	C87.311302,83.410011 87.110687,83.669418 86.910080,83.928825 
	C86.910080,83.928825 86.980553,83.914574 86.564362,83.878639 
	C85.093712,83.869095 84.039261,83.895477 82.984802,83.921860 
z"/>
<path fill="#D2541E" opacity="1.000000" stroke="none" 
	d="
M66.066216,83.159866 
	C66.066216,83.159859 65.604675,83.022667 65.216782,82.795670 
	C64.594887,82.324745 64.316086,82.153961 63.992508,82.056305 
	C63.992508,82.056305 64.002441,81.997643 63.872887,81.786591 
	C63.560963,81.301270 63.317245,81.102036 63.012180,80.977844 
	C63.012180,80.977844 62.998871,81.002594 62.997673,80.582558 
	C63.041313,78.780792 63.086151,77.399063 63.130989,76.017334 
	C63.670620,75.556915 64.210258,75.096489 65.287933,74.378708 
	C66.881348,74.076942 67.936707,74.032539 68.992073,73.988136 
	C69.435165,74.277939 69.878250,74.567741 70.676758,75.322723 
	C71.235634,77.491539 71.439087,79.195168 71.642540,80.898804 
	C71.165833,81.377586 70.689125,81.856361 69.693626,82.603867 
	C68.138634,82.968346 67.102425,83.064102 66.066216,83.159866 
z"/>
<path fill="#D36414" opacity="1.000000" stroke="none" 
	d="
M81.444550,59.515415 
	C77.043053,59.853428 74.812134,57.666512 74.893555,53.822769 
	C74.968208,50.298565 77.999527,49.648335 80.702332,50.134422 
	C82.180595,50.400276 84.598160,52.251797 84.494850,53.145916 
	C84.247520,55.286427 82.758888,57.283504 81.444550,59.515415 
M78.929756,56.741467 
	C80.173386,55.735756 81.417023,54.730049 82.660652,53.724339 
	C81.526886,53.024372 80.393127,52.324406 79.259361,51.624439 
	C78.934952,53.218479 78.610542,54.812523 78.929756,56.741467 
z"/>
<path fill="#F0A418" opacity="1.000000" stroke="none" 
	d="
M73.735039,67.962769 
	C72.588951,69.051201 71.760521,70.006081 70.541092,71.411644 
	C69.704224,69.933342 69.347000,68.882492 68.644432,68.174202 
	C67.875084,67.398582 66.786804,66.939323 66.026833,66.461281 
	C68.113617,61.880127 71.171539,62.763508 73.869362,63.621437 
	C74.329933,63.767899 74.011345,66.364502 73.735039,67.962769 
z"/>
<path fill="#F1A616" opacity="1.000000" stroke="none" 
	d="
M92.405975,61.236382 
	C90.674164,62.175877 88.967102,62.781563 86.482498,63.663128 
	C86.658890,60.891171 86.764381,59.233303 86.951927,56.286022 
	C89.361702,58.316544 90.896217,59.609558 92.405975,61.236382 
z"/>
<path fill="#FDBA1F" opacity="1.000000" stroke="none" 
	d="
M71.970924,80.784653 
	C71.439087,79.195168 71.235634,77.491539 70.918785,75.430420 
	C73.773369,76.279572 74.620705,78.052193 71.970924,80.784653 
z"/>
<path fill="#F7B720" opacity="1.000000" stroke="none" 
	d="
M94.910706,76.559357 
	C94.967560,77.358696 94.739159,78.087715 94.510757,78.816734 
	C93.940369,78.630920 93.369987,78.445107 92.799599,78.259285 
	C93.408211,77.669205 94.016823,77.079124 94.910706,76.559357 
z"/>
<path fill="#F7B720" opacity="1.000000" stroke="none" 
	d="
M84.341232,71.327003 
	C85.031593,71.116508 85.668877,71.186028 86.306168,71.255554 
	C86.217644,71.676521 86.129120,72.097481 86.040588,72.518448 
	C85.456451,72.214638 84.872307,71.910835 84.341232,71.327003 
z"/>
<path fill="#F6C431" opacity="1.000000" stroke="none" 
	d="
M79.474838,46.080708 
	C80.688675,46.131260 82.262230,46.178482 83.979294,46.530243 
	C82.693390,46.582314 81.263969,46.329845 79.474838,46.080708 
z"/>
<path fill="#F7B720" opacity="1.000000" stroke="none" 
	d="
M98.016167,78.686211 
	C98.250488,79.235657 98.241386,79.779137 98.232285,80.322624 
	C98.068359,80.319000 97.761078,80.318420 97.760925,80.311310 
	C97.749374,79.767952 97.761993,79.224083 98.016167,78.686211 
z"/>
<path fill="#FDBA1F" opacity="1.000000" stroke="none" 
	d="
M62.876862,76.259758 
	C63.086151,77.399063 63.041313,78.780792 63.010880,80.577431 
	C62.891102,79.495621 62.756916,77.998901 62.876862,76.259758 
z"/>
<path fill="#F7B720" opacity="1.000000" stroke="none" 
	d="
M89.147507,81.723305 
	C88.929665,80.594803 88.957550,79.220314 88.983505,77.434143 
	C89.118790,78.507416 89.256012,79.992363 89.147507,81.723305 
z"/>
<path fill="#F7B720" opacity="1.000000" stroke="none" 
	d="
M82.749237,74.736572 
	C82.198074,75.537315 81.415413,76.170357 80.371346,76.952919 
	C80.912529,76.257912 81.715134,75.413383 82.749237,74.736572 
z"/>
<path fill="#F7B720" opacity="1.000000" stroke="none" 
	d="
M79.880432,77.263168 
	C80.102913,78.096245 80.080276,79.148102 80.049194,80.594185 
	C79.905602,79.819588 79.770470,78.650780 79.880432,77.263168 
z"/>
<path fill="#FDBA1F" opacity="1.000000" stroke="none" 
	d="
M66.318123,83.353149 
	C67.102425,83.064102 68.138634,82.968346 69.563454,82.822357 
	C68.824722,83.030228 67.697372,83.288330 66.318123,83.353149 
z"/>
<path fill="#F7B720" opacity="1.000000" stroke="none" 
	d="
M83.219254,84.156586 
	C84.039261,83.895477 85.093712,83.869095 86.543953,83.849045 
	C85.777725,84.034027 84.615715,84.212669 83.219254,84.156586 
z"/>
<path fill="#F6C431" opacity="1.000000" stroke="none" 
	d="
M89.038849,47.384689 
	C89.595970,47.492802 90.246544,47.894127 91.004593,48.578438 
	C90.452141,48.466919 89.792213,48.072407 89.038849,47.384689 
z"/>
<path fill="#FDBA1F" opacity="1.000000" stroke="none" 
	d="
M68.749649,73.766838 
	C67.936707,74.032539 66.881348,74.076942 65.430634,74.152451 
	C66.192596,73.970879 67.349907,73.758209 68.749649,73.766838 
z"/>
<path fill="#F7B720" opacity="1.000000" stroke="none" 
	d="
M88.921295,76.696686 
	C88.589172,76.559860 88.206276,76.113586 87.702866,75.390259 
	C88.011749,75.537880 88.441139,75.962563 88.921295,76.696686 
z"/>
<path fill="#F7B720" opacity="1.000000" stroke="none" 
	d="
M86.873192,74.862152 
	C86.583099,74.998817 86.147156,74.951950 85.397705,74.806870 
	C85.631920,74.698647 86.179626,74.688629 86.873192,74.862152 
z"/>
<path fill="#F7B720" opacity="1.000000" stroke="none" 
	d="
M80.072144,81.271286 
	C80.378281,81.432144 80.728012,81.897530 81.176620,82.643578 
	C80.888916,82.474762 80.502335,82.025284 80.072144,81.271286 
z"/>
<path fill="#FDBA1F" opacity="1.000000" stroke="none" 
	d="
M63.129013,81.182175 
	C63.317245,81.102036 63.560963,81.301270 63.843613,81.791901 
	C63.667492,81.850098 63.434807,81.642845 63.129013,81.182175 
z"/>
<path fill="#FDBA1F" opacity="1.000000" stroke="none" 
	d="
M64.143478,82.251083 
	C64.316086,82.153961 64.594887,82.324745 64.977692,82.767525 
	C64.806770,82.860573 64.529427,82.687065 64.143478,82.251083 
z"/>
<path fill="#F7B720" opacity="1.000000" stroke="none" 
	d="
M88.152336,82.839630 
	C88.126907,82.694008 88.313744,82.419861 88.725906,82.033150 
	C88.823349,82.234299 88.627808,82.497810 88.152336,82.839630 
z"/>
<path fill="#F7B720" opacity="1.000000" stroke="none" 
	d="
M87.126602,83.810493 
	C87.110687,83.669418 87.311302,83.410011 87.740494,83.045273 
	C87.825943,83.245193 87.617294,83.495934 87.126602,83.810493 
z"/>
<path fill="#D8492D" opacity="1.000000" stroke="none" 
	d="
M78.607948,56.574013 
	C78.610542,54.812523 78.934952,53.218479 79.259361,51.624439 
	C80.393127,52.324406 81.526886,53.024372 82.660652,53.724339 
	C81.417023,54.730049 80.173386,55.735756 78.607948,56.574013 
z"/>
</svg>